<?xml version="1.0" encoding="UTF-8" standalone="no"?>
<!DOCTYPE svg PUBLIC "-//W3C//DTD SVG 1.1//EN" "http://www.w3.org/Graphics/SVG/1.1/DTD/svg11.dtd">
<svg version="1.1" xmlns="http://www.w3.org/2000/svg" xmlns:xlink="http://www.w3.org/1999/xlink" preserveAspectRatio="xMidYMid meet" viewBox="0 0 1024 1024" width="1024" height="1024"><defs><path d="M1024 512C1024 794.58 794.58 1024 512 1024C229.42 1024 0 794.58 0 512C0 229.42 229.42 0 512 0C794.58 0 1024 229.42 1024 512Z" id="caOw0QhLF"></path><path d="M512 546.13C512 517.9 534.97 494.93 563.2 494.93C567.91 494.93 571.73 491.11 571.73 486.4C571.73 481.69 567.91 477.87 563.2 477.87C525.56 477.87 494.93 508.49 494.93 546.13C494.93 583.77 525.56 614.4 563.2 614.4C567.91 614.4 571.73 610.58 571.73 605.87C571.73 601.16 567.91 597.33 563.2 597.33C534.97 597.33 512 574.37 512 546.13Z" id="j1Cqlbxu8e"></path><path d="M455.63 429.59C442.74 442.49 435.64 459.63 435.64 477.87C435.64 496.1 442.74 513.24 455.63 526.14C457.29 527.8 459.48 528.64 461.66 528.64C463.84 528.64 466.03 527.8 467.7 526.14C471.03 522.8 471.03 517.41 467.7 514.07C458.03 504.4 452.7 491.54 452.7 477.87C452.7 464.19 458.03 451.33 467.7 441.66C480.85 428.48 500.16 423.48 518.07 428.65C522.61 429.95 527.33 427.33 528.62 422.8C529.93 418.28 527.31 413.54 522.78 412.24C498.91 405.39 473.17 412.04 455.63 429.59Z" id="f9X3REsLc"></path><path d="M701.81 607.94C692.13 617.61 679.28 622.93 665.6 622.93C651.92 622.93 639.07 617.61 629.39 607.94C619.73 598.26 614.4 585.41 614.4 571.73C614.4 558.05 619.73 545.2 629.39 535.53C632.73 532.19 632.73 526.8 629.39 523.46C626.07 520.12 620.66 520.12 617.33 523.46C604.43 536.35 597.33 553.5 597.33 571.73C597.33 589.97 604.43 607.11 617.33 620.01C630.22 632.9 647.36 640 665.6 640C683.84 640 700.98 632.9 713.87 620.01C717.21 616.67 717.21 611.28 713.87 607.94C710.54 604.6 705.14 604.6 701.81 607.94Z" id="a3okiFq7i4"></path><path d="M640 443.73C621.76 443.73 604.62 450.83 591.73 463.73C588.39 467.06 588.39 472.46 591.73 475.79C595.06 479.13 600.46 479.13 603.79 475.79C613.47 466.12 626.32 460.8 640 460.8C653.68 460.8 666.53 466.12 676.2 475.79C689.19 488.77 694.23 507.84 689.37 525.58C688.13 530.12 690.8 534.82 695.35 536.06C696.11 536.27 696.87 536.37 697.61 536.37C701.36 536.37 704.8 533.88 705.83 530.09C712.31 506.46 705.58 481.03 688.27 463.73C675.38 450.83 658.24 443.73 640 443.73Z" id="desri0QBO"></path><path d="M601.06 392.45C582.83 392.45 565.68 399.55 552.79 412.44C549.45 415.78 549.45 421.17 552.79 424.51C556.13 427.84 561.53 427.84 564.86 424.51C574.53 414.84 587.38 409.51 601.06 409.51C614.74 409.51 627.6 414.84 637.27 424.51C638.93 426.17 641.12 427.01 643.3 427.01C645.49 427.01 647.66 426.17 649.34 424.51C652.67 421.17 652.67 415.78 649.34 412.44C636.44 399.55 619.3 392.45 601.06 392.45Z" id="d1lYaSVCBM"></path><path d="M375.03 478.29C356.8 478.29 339.65 485.39 326.76 498.29C323.42 501.62 323.42 507.02 326.76 510.35C330.1 513.69 335.5 513.69 338.83 510.35C348.5 500.68 361.35 495.36 375.03 495.36C388.71 495.36 401.57 500.68 411.24 510.35C420.91 520.03 426.23 532.88 426.23 546.56C426.23 560.24 420.91 573.1 411.24 582.77C407.9 586.1 407.9 591.5 411.24 594.83C412.9 596.5 415.09 597.33 417.27 597.33C419.46 597.33 421.64 596.5 423.3 594.83C436.2 581.94 443.3 564.8 443.3 546.56C443.3 528.32 436.2 511.18 423.31 498.29C410.41 485.39 393.27 478.29 375.03 478.29Z" id="gkGMFi5UX"></path><path d="M533.22 315.83L535.28 315.95L537.33 316.13L539.37 316.35L541.4 316.61L543.41 316.93L545.42 317.29L547.4 317.7L549.38 318.15L551.33 318.65L553.27 319.2L555.2 319.79L557.11 320.43L558.99 321.11L560.86 321.83L562.72 322.6L564.55 323.41L566.36 324.26L568.14 325.16L569.91 326.1L571.65 327.08L573.37 328.1L575.07 329.16L576.74 330.27L578.39 331.41L580.01 332.6L581.6 333.82L583.17 335.08L584.71 336.38L586.21 337.72L587.69 339.1L589.14 340.51L590.56 341.97L591.95 343.46L593.3 344.98L594.63 346.54L595.92 348.14L597.17 349.78L598.39 351.44L601.66 350.87L604.92 350.44L608.17 350.13L611.4 349.95L614.62 349.89L617.81 349.96L620.99 350.15L624.14 350.45L627.26 350.88L630.35 351.42L633.41 352.07L636.43 352.83L639.42 353.71L642.36 354.69L645.27 355.77L648.12 356.95L650.93 358.24L653.69 359.62L656.39 361.1L659.04 362.68L661.62 364.34L664.15 366.1L666.61 367.94L669.01 369.87L671.33 371.89L673.59 373.98L675.76 376.16L677.87 378.41L679.89 380.74L681.83 383.14L683.68 385.61L685.45 388.15L687.12 390.76L688.7 393.43L690.19 396.17L691.58 398.96L692.87 401.82L694.05 404.73L695.13 407.7L696.1 410.72L699.14 411.26L702.14 411.91L705.1 412.67L708.02 413.53L710.9 414.49L713.72 415.55L716.51 416.7L719.24 417.96L721.91 419.3L724.54 420.74L727.1 422.26L729.61 423.87L732.06 425.56L734.45 427.34L736.77 429.19L739.02 431.12L741.21 433.13L743.33 435.21L745.37 437.36L747.34 439.57L749.23 441.86L751.05 444.21L752.78 446.62L754.44 449.09L756 451.61L757.48 454.2L758.88 456.83L760.18 459.52L761.39 462.26L762.5 465.04L763.52 467.86L764.44 470.73L765.26 473.64L765.97 476.59L766.58 479.57L767.09 482.58L767.48 485.63L767.77 488.7L767.94 491.81L768 494.93L767.98 496.65L767.93 498.36L767.85 500.06L767.73 501.76L767.58 503.45L767.39 505.14L767.18 506.81L766.93 508.48L766.65 510.15L766.33 511.8L765.98 513.44L765.61 515.08L765.2 516.7L764.75 518.32L764.28 519.92L763.78 521.51L763.24 523.1L762.68 524.67L762.08 526.22L761.46 527.77L760.8 529.3L760.11 530.82L759.4 532.32L758.65 533.81L757.87 535.29L757.07 536.75L756.24 538.2L755.37 539.63L754.48 541.04L753.56 542.44L752.62 543.82L751.64 545.18L750.64 546.52L749.61 547.85L748.55 549.16L747.46 550.45L746.35 551.71L745.21 552.96L744.05 554.19L742.85 555.4L743.65 556.5L744.43 557.62L745.19 558.74L745.93 559.87L746.66 561.02L747.36 562.17L748.05 563.34L748.71 564.51L749.36 565.7L749.99 566.89L750.6 568.09L751.19 569.3L751.76 570.52L752.31 571.75L752.84 572.99L753.35 574.23L753.84 575.48L754.31 576.74L754.76 578.01L755.2 579.28L755.61 580.56L756 581.85L756.37 583.14L756.72 584.44L757.05 585.74L757.36 587.05L757.64 588.37L757.91 589.69L758.16 591.02L758.38 592.35L758.59 593.68L758.77 595.02L758.93 596.37L759.08 597.71L759.19 599.06L759.29 600.42L759.37 601.78L759.42 603.14L759.46 604.5L759.47 605.87L759.4 609.15L759.22 612.41L758.91 615.63L758.49 618.82L757.95 621.97L757.3 625.07L756.53 628.14L755.65 631.16L754.67 634.14L753.58 637.07L752.39 639.94L751.1 642.76L749.71 645.53L748.22 648.24L746.64 650.88L744.96 653.47L743.2 655.99L741.35 658.44L739.41 660.82L737.39 663.13L735.29 665.36L733.11 667.52L730.85 669.6L728.51 671.6L726.11 673.52L723.63 675.35L721.09 677.09L718.48 678.74L715.81 680.3L713.07 681.76L710.28 683.13L707.42 684.39L704.52 685.56L701.56 686.62L698.55 687.57L695.49 688.42L692.38 689.16L689.23 689.78L686.04 690.28L682.81 690.67L681.42 692.68L679.98 694.66L678.49 696.59L676.97 698.47L675.41 700.32L673.8 702.11L672.16 703.87L670.48 705.58L668.76 707.25L667.01 708.86L665.22 710.44L663.39 711.96L661.54 713.44L659.64 714.88L657.72 716.26L655.77 717.59L653.78 718.88L651.77 720.12L649.72 721.3L647.65 722.44L645.55 723.53L643.42 724.56L641.27 725.54L639.1 726.47L636.9 727.35L634.67 728.18L632.43 728.95L630.16 729.66L627.87 730.33L625.57 730.93L623.24 731.48L620.9 731.98L618.54 732.42L616.16 732.8L613.77 733.12L611.36 733.39L608.94 733.6L606.5 733.75L604.06 733.84L601.6 733.87L598.58 733.82L595.59 733.68L592.61 733.46L589.65 733.14L586.71 732.73L583.8 732.24L580.92 731.67L578.06 731L575.23 730.26L572.43 729.43L569.66 728.53L566.93 727.54L564.23 726.47L561.57 725.33L558.95 724.1L556.36 722.81L553.82 721.44L551.32 719.99L548.87 718.48L546.46 716.89L544.1 715.23L541.79 713.51L539.53 711.71L537.33 709.86L535.18 707.93L533.08 705.94L531.04 703.89L529.06 701.78L527.14 699.6L525.29 697.37L523.49 695.08L521.76 692.73L520.1 690.32L518.51 687.86L516.99 685.35L515.54 682.78L514.16 680.16L512.86 677.49L511.63 674.78L510.48 672.01L509.14 671.7L507.81 671.37L506.48 671.02L505.17 670.66L503.86 670.27L502.56 669.86L501.27 669.43L499.99 668.98L498.71 668.51L497.45 668.02L496.19 667.51L494.95 666.98L493.71 666.43L492.49 665.86L491.27 665.28L490.07 664.67L488.87 664.05L487.69 663.4L486.51 662.74L485.35 662.06L484.2 661.36L483.06 660.64L481.93 659.91L480.81 659.15L479.71 658.38L478.61 657.59L477.53 656.78L476.47 655.95L475.41 655.11L474.37 654.25L473.34 653.37L472.32 652.47L471.31 651.56L470.32 650.63L469.35 649.68L468.38 648.72L467.44 647.74L466.5 646.74L465.58 645.72L464.67 644.69L463.61 645.29L462.54 645.88L461.46 646.45L460.37 647.01L459.28 647.56L458.19 648.08L457.08 648.6L455.98 649.1L454.86 649.58L453.74 650.05L452.62 650.5L451.49 650.94L450.35 651.37L449.21 651.78L448.06 652.17L446.91 652.55L445.76 652.92L444.6 653.27L443.43 653.6L442.26 653.92L441.09 654.23L439.91 654.52L438.73 654.79L437.54 655.05L436.35 655.29L435.16 655.52L433.96 655.73L432.76 655.93L431.56 656.11L430.35 656.27L429.14 656.42L427.93 656.56L426.71 656.68L425.49 656.78L424.27 656.87L423.05 656.94L421.82 656.99L420.6 657.03L419.37 657.06L418.13 657.07L415.19 657.02L412.26 656.89L409.35 656.66L406.47 656.36L403.61 655.96L400.77 655.48L397.97 654.92L395.19 654.27L392.44 653.54L389.72 652.73L387.04 651.84L384.39 650.88L381.78 649.83L379.2 648.71L376.66 647.52L374.17 646.25L371.72 644.91L369.31 643.5L366.94 642.02L364.62 640.46L362.35 638.84L360.13 637.16L357.96 635.4L355.85 633.58L353.78 631.7L351.78 629.75L349.83 627.75L347.94 625.68L346.11 623.55L344.34 621.37L342.63 619.12L340.99 616.82L339.41 614.47L337.9 612.06L336.47 609.6L335.1 607.09L333.8 604.52L332.58 601.91L331.43 599.25L330.36 596.54L327.22 596.08L324.12 595.5L321.05 594.81L318.04 594.02L315.07 593.11L312.14 592.11L309.27 591L306.45 589.8L303.68 588.49L300.96 587.09L298.31 585.6L295.72 584.02L293.18 582.35L290.72 580.59L288.31 578.75L285.98 576.83L283.72 574.83L281.53 572.75L279.42 570.6L277.38 568.38L275.42 566.08L273.54 563.71L271.75 561.28L270.04 558.79L268.42 556.23L266.89 553.62L265.44 550.94L264.1 548.22L262.85 545.44L261.69 542.6L260.64 539.72L259.69 536.8L258.84 533.83L258.1 530.82L257.47 527.77L256.94 524.68L256.53 521.56L256.24 518.4L256.06 515.21L256 512L256.03 509.69L256.12 507.4L256.27 505.12L256.48 502.85L256.75 500.6L257.08 498.36L257.46 496.14L257.91 493.93L258.41 491.75L258.96 489.58L259.57 487.44L260.24 485.31L260.96 483.21L261.73 481.13L262.56 479.07L263.43 477.04L264.37 475.03L265.35 473.06L266.38 471.1L267.47 469.18L268.6 467.29L269.78 465.42L271.01 463.59L272.29 461.79L273.62 460.02L275 458.29L276.42 456.59L277.88 454.92L279.39 453.3L280.95 451.71L282.55 450.15L284.2 448.64L285.88 447.17L287.61 445.74L289.39 444.35L291.2 443L293.05 441.7L294.95 440.44L296.88 439.23L298.85 438.07L299.15 434.4L299.58 430.78L300.15 427.2L300.85 423.67L301.69 420.18L302.65 416.75L303.74 413.37L304.95 410.04L306.29 406.78L307.74 403.57L309.31 400.44L310.99 397.37L312.78 394.36L314.68 391.44L316.68 388.59L318.78 385.81L320.98 383.12L323.28 380.51L325.67 377.99L328.15 375.56L330.72 373.22L333.37 370.97L336.1 368.82L338.92 366.77L341.81 364.83L344.78 362.99L347.81 361.26L350.92 359.64L354.09 358.13L357.33 356.74L360.62 355.47L363.97 354.33L367.38 353.3L370.84 352.41L374.35 351.64L377.9 351.01L381.5 350.51L385.14 350.16L388.82 349.94L392.53 349.87L394.11 349.88L395.68 349.92L397.25 349.98L398.81 350.07L400.37 350.19L401.92 350.33L403.47 350.49L405.01 350.68L406.54 350.9L408.07 351.14L409.59 351.4L411.11 351.69L412.61 352.01L414.11 352.35L415.61 352.71L417.09 353.1L418.57 353.51L420.04 353.94L421.5 354.4L422.95 354.89L424.4 355.39L425.83 355.93L427.26 356.48L428.67 357.06L430.08 357.66L431.47 358.29L432.86 358.93L434.24 359.61L435.6 360.3L436.95 361.02L438.3 361.76L439.63 362.52L440.95 363.31L442.26 364.12L443.55 364.95L444.83 365.8L446.11 366.67L447.36 367.57L448.61 368.49L449.84 369.43L450.83 367.07L451.89 364.74L453.02 362.45L454.22 360.2L455.47 357.99L456.79 355.83L458.17 353.71L459.61 351.64L461.11 349.61L462.67 347.62L464.28 345.69L465.95 343.81L467.67 341.98L469.44 340.19L471.27 338.47L473.14 336.79L475.06 335.17L477.02 333.61L479.03 332.1L481.08 330.66L483.18 329.27L485.31 327.94L487.49 326.68L489.7 325.48L491.95 324.34L494.23 323.27L496.54 322.26L498.89 321.32L501.27 320.45L503.68 319.65L506.12 318.92L508.58 318.26L511.07 317.68L513.58 317.17L516.11 316.74L518.67 316.38L521.24 316.1L523.83 315.9L526.44 315.77L529.07 315.73L531.15 315.76L533.22 315.83ZM524.32 332.97L521.97 333.17L519.64 333.46L517.33 333.83L515.04 334.28L512.78 334.8L510.54 335.4L508.33 336.07L506.15 336.81L504 337.63L501.89 338.52L499.8 339.47L497.76 340.5L495.75 341.59L493.78 342.74L491.85 343.96L489.96 345.24L488.11 346.58L486.31 347.98L484.56 349.44L482.86 350.96L481.21 352.53L479.6 354.16L478.06 355.84L476.57 357.57L475.13 359.35L473.75 361.18L472.44 363.06L471.18 364.99L469.99 366.96L468.87 368.97L467.81 371.03L466.81 373.13L465.89 375.26L465.04 377.44L464.27 379.66L463.57 381.91L462.94 384.19L462.4 386.51L462.34 386.74L462.28 386.96L462.22 387.19L462.15 387.41L462.07 387.63L461.99 387.85L461.9 388.06L461.8 388.27L461.7 388.48L461.6 388.69L461.49 388.89L461.37 389.09L461.25 389.28L461.13 389.47L460.99 389.66L460.86 389.84L460.72 390.02L460.57 390.2L460.43 390.37L460.27 390.54L460.11 390.7L459.95 390.86L459.78 391.02L459.61 391.17L459.44 391.32L459.26 391.46L459.07 391.59L458.89 391.73L458.7 391.85L458.5 391.98L458.31 392.09L458.1 392.21L457.9 392.31L457.69 392.42L457.48 392.51L457.27 392.6L457.05 392.69L456.83 392.77L456.61 392.84L456.38 392.91L456.15 392.97L455.92 393.02L455.69 393.07L455.47 393.11L455.24 393.15L455 393.18L454.77 393.2L454.54 393.21L454.31 393.22L454.08 393.23L453.85 393.22L453.62 393.22L453.4 393.2L453.17 393.18L452.94 393.15L452.71 393.12L452.49 393.08L452.27 393.03L452.04 392.98L451.82 392.93L451.6 392.86L451.39 392.8L451.17 392.72L450.96 392.64L450.74 392.55L450.54 392.46L450.33 392.37L450.12 392.26L449.92 392.16L449.72 392.04L449.53 391.92L449.33 391.8L449.14 391.67L448.95 391.53L448.77 391.39L448.59 391.24L448.41 391.09L448.24 390.93L448.07 390.77L447.91 390.6L446.8 389.47L445.67 388.37L444.52 387.29L443.36 386.23L442.18 385.2L440.98 384.2L439.77 383.23L438.54 382.28L437.29 381.36L436.03 380.46L434.75 379.6L433.46 378.76L432.15 377.95L430.83 377.16L429.49 376.41L428.14 375.68L426.78 374.98L425.41 374.3L424.02 373.66L422.62 373.04L421.2 372.46L419.78 371.9L418.34 371.37L416.9 370.87L415.44 370.4L413.97 369.96L412.49 369.54L411.01 369.16L409.51 368.81L408 368.48L406.49 368.19L404.97 367.93L403.44 367.7L401.9 367.49L400.36 367.32L398.8 367.18L397.24 367.07L395.68 367L394.11 366.95L392.53 366.93L389.39 367L386.28 367.19L383.2 367.5L380.16 367.93L377.16 368.49L374.19 369.16L371.27 369.94L368.4 370.83L365.58 371.84L362.81 372.94L360.09 374.16L357.42 375.47L354.82 376.88L352.28 378.39L349.8 379.99L347.38 381.69L345.04 383.47L342.77 385.34L340.56 387.29L338.44 389.33L336.39 391.44L334.43 393.63L332.55 395.9L330.75 398.23L329.05 400.64L327.43 403.11L325.91 405.64L324.48 408.24L323.15 410.9L321.93 413.61L320.8 416.38L319.79 419.2L318.88 422.06L318.08 424.98L317.39 427.94L316.83 430.94L316.38 433.98L316.05 437.06L315.84 440.17L315.76 443.31L315.75 443.56L315.74 443.79L315.72 444.03L315.7 444.27L315.67 444.51L315.63 444.74L315.59 444.97L315.54 445.2L315.48 445.43L315.42 445.66L315.35 445.88L315.27 446.1L315.19 446.32L315.11 446.54L315.01 446.75L314.92 446.96L314.81 447.17L314.7 447.38L314.59 447.58L314.47 447.78L314.34 447.98L314.21 448.17L314.07 448.36L313.93 448.54L313.78 448.72L313.63 448.9L313.48 449.08L313.31 449.24L313.15 449.41L312.98 449.57L312.8 449.73L312.62 449.88L312.44 450.02L312.25 450.17L312.05 450.3L311.86 450.44L311.65 450.56L311.45 450.68L311.24 450.8L311.02 450.91L309.28 451.8L307.58 452.74L305.91 453.72L304.27 454.75L302.67 455.81L301.1 456.91L299.58 458.05L298.08 459.23L296.63 460.45L295.21 461.7L293.84 462.99L292.5 464.32L291.2 465.67L289.94 467.06L288.72 468.49L287.55 469.94L286.41 471.43L285.32 472.94L284.27 474.48L283.26 476.05L282.3 477.65L281.38 479.27L280.51 480.92L279.68 482.6L278.9 484.29L278.17 486.01L277.48 487.76L276.84 489.52L276.25 491.3L275.7 493.1L275.21 494.92L274.77 496.76L274.37 498.62L274.03 500.49L273.74 502.37L273.5 504.27L273.31 506.19L273.18 508.11L273.09 510.05L273.07 512L273.12 514.69L273.28 517.35L273.53 519.98L273.89 522.59L274.35 525.16L274.9 527.7L275.54 530.21L276.28 532.68L277.11 535.11L278.03 537.5L279.03 539.85L280.12 542.15L281.29 544.4L282.54 546.61L283.87 548.76L285.28 550.86L286.76 552.91L288.31 554.9L289.94 556.83L291.63 558.69L293.4 560.5L295.23 562.24L297.12 563.91L299.07 565.51L301.08 567.04L303.15 568.5L305.28 569.88L307.46 571.18L309.7 572.41L311.98 573.55L314.31 574.61L316.69 575.58L319.11 576.47L321.58 577.26L324.08 577.97L326.62 578.58L329.21 579.09L331.82 579.51L334.47 579.83L337.15 580.04L337.42 580.06L337.68 580.09L337.94 580.13L338.2 580.17L338.45 580.22L338.71 580.28L338.96 580.35L339.2 580.42L339.45 580.5L339.69 580.59L339.93 580.69L340.16 580.79L340.39 580.9L340.62 581.02L340.84 581.14L341.06 581.27L341.28 581.4L341.49 581.54L341.7 581.69L341.9 581.85L342.1 582L342.29 582.17L342.48 582.34L342.66 582.52L342.84 582.7L343.01 582.89L343.18 583.08L343.34 583.28L343.49 583.48L343.64 583.69L343.79 583.91L343.92 584.12L344.05 584.35L344.18 584.57L344.3 584.81L344.41 585.04L344.51 585.28L344.61 585.53L344.7 585.77L344.78 586.03L345.57 588.43L346.43 590.79L347.36 593.11L348.36 595.38L349.43 597.61L350.56 599.8L351.75 601.94L353.01 604.04L354.34 606.08L355.72 608.08L357.16 610.03L358.66 611.92L360.21 613.76L361.82 615.55L363.48 617.29L365.19 618.97L366.95 620.59L368.77 622.16L370.63 623.67L372.53 625.12L374.48 626.51L376.48 627.83L378.51 629.1L380.59 630.3L382.7 631.43L384.85 632.5L387.04 633.51L389.26 634.44L391.52 635.31L393.81 636.11L396.13 636.83L398.48 637.49L400.85 638.07L403.25 638.57L405.68 639L408.13 639.36L410.6 639.64L413.09 639.84L415.6 639.96L418.13 640L419.31 639.99L420.48 639.96L421.64 639.92L422.81 639.86L423.97 639.78L425.13 639.68L426.29 639.57L427.44 639.44L428.59 639.29L429.74 639.12L430.88 638.94L432.02 638.74L433.16 638.52L434.29 638.29L435.42 638.04L436.54 637.77L437.66 637.49L438.77 637.18L439.88 636.86L440.98 636.53L442.08 636.18L443.17 635.81L444.26 635.42L445.34 635.02L446.42 634.6L447.49 634.16L448.55 633.71L449.61 633.24L450.66 632.76L451.7 632.26L452.74 631.74L453.77 631.21L454.8 630.66L455.81 630.09L456.82 629.51L457.83 628.91L458.82 628.3L459.81 627.67L460.79 627.02L461.76 626.36L461.87 626.29L461.98 626.21L462.09 626.14L462.21 626.07L462.32 626L462.44 625.94L462.55 625.87L462.67 625.81L462.79 625.75L462.91 625.69L463.02 625.64L463.14 625.58L463.26 625.53L463.38 625.48L463.5 625.43L463.62 625.39L463.74 625.34L463.87 625.3L463.99 625.26L464.11 625.22L464.23 625.19L464.36 625.15L464.48 625.12L464.6 625.09L464.73 625.06L464.85 625.03L464.98 625.01L465.1 624.99L465.22 624.96L465.35 624.94L465.47 624.93L465.6 624.91L465.73 624.9L465.85 624.89L465.98 624.88L466.1 624.87L466.23 624.86L466.35 624.86L466.48 624.85L466.6 624.85L466.8 624.85L467 624.86L467.2 624.87L467.4 624.89L467.6 624.91L467.8 624.94L467.99 624.97L468.19 625L468.38 625.04L468.58 625.08L468.77 625.13L468.96 625.18L469.15 625.24L469.34 625.3L469.53 625.37L469.72 625.44L469.91 625.51L470.09 625.59L470.27 625.68L470.45 625.77L470.63 625.86L470.81 625.95L470.98 626.06L471.15 626.16L471.32 626.27L471.49 626.38L471.66 626.5L471.82 626.63L471.98 626.75L472.14 626.88L472.29 627.02L472.44 627.16L472.59 627.3L472.74 627.45L472.88 627.6L473.02 627.76L473.16 627.92L473.29 628.08L473.42 628.25L473.55 628.42L474.36 629.53L475.19 630.62L476.04 631.69L476.91 632.75L477.8 633.78L478.7 634.79L479.62 635.79L480.56 636.76L481.52 637.71L482.49 638.64L483.48 639.55L484.48 640.44L485.51 641.31L486.54 642.15L487.6 642.98L488.67 643.78L489.75 644.57L490.85 645.32L491.96 646.06L493.09 646.78L494.23 647.47L495.38 648.14L496.55 648.79L497.73 649.41L498.92 650.01L500.13 650.59L501.35 651.14L502.58 651.67L503.82 652.18L505.07 652.66L506.33 653.11L507.61 653.55L508.9 653.96L510.19 654.34L511.5 654.7L512.81 655.03L514.14 655.34L515.47 655.62L516.82 655.88L518.17 656.11L518.4 656.15L518.64 656.2L518.86 656.25L519.09 656.31L519.31 656.38L519.54 656.45L519.76 656.52L519.97 656.61L520.19 656.7L520.4 656.79L520.6 656.89L520.81 656.99L521.01 657.1L521.21 657.22L521.4 657.34L521.59 657.47L521.78 657.6L521.97 657.73L522.15 657.87L522.32 658.02L522.5 658.17L522.66 658.32L522.83 658.48L522.99 658.64L523.14 658.81L523.3 658.98L523.44 659.16L523.59 659.34L523.72 659.52L523.86 659.71L523.98 659.9L524.11 660.1L524.22 660.3L524.34 660.5L524.44 660.71L524.54 660.92L524.64 661.13L524.73 661.35L524.82 661.57L524.9 661.79L525.77 664.24L526.72 666.65L527.74 669.01L528.82 671.33L529.98 673.6L531.2 675.83L532.48 678.01L533.83 680.15L535.24 682.23L536.72 684.27L538.25 686.25L539.83 688.18L541.48 690.06L543.18 691.88L544.93 693.65L546.73 695.37L548.58 697.02L550.48 698.62L552.43 700.16L554.43 701.63L556.46 703.05L558.54 704.4L560.67 705.69L562.83 706.91L565.03 708.07L567.26 709.16L569.54 710.18L571.84 711.14L574.18 712.02L576.55 712.83L578.94 713.57L581.37 714.24L583.82 714.83L586.3 715.35L588.8 715.79L591.32 716.15L593.86 716.43L596.43 716.64L599.01 716.76L601.6 716.8L603.72 716.77L605.83 716.69L607.93 716.56L610.02 716.37L612.09 716.13L614.16 715.84L616.2 715.49L618.24 715.1L620.25 714.65L622.25 714.15L624.23 713.61L626.2 713.01L628.15 712.37L630.07 711.67L631.98 710.93L633.86 710.14L635.72 709.3L637.56 708.42L639.38 707.49L641.17 706.51L642.94 705.49L644.68 704.43L646.39 703.31L648.08 702.16L649.73 700.96L651.36 699.72L652.96 698.43L654.53 697.1L656.07 695.73L657.57 694.32L659.04 692.87L660.48 691.37L661.88 689.84L663.25 688.27L664.58 686.65L665.87 685L667.13 683.31L668.35 681.58L669.52 679.82L670.66 678.02L670.77 677.84L670.89 677.66L671.01 677.49L671.14 677.32L671.26 677.16L671.4 676.99L671.53 676.84L671.67 676.68L671.81 676.53L671.96 676.39L672.11 676.24L672.26 676.1L672.42 675.97L672.57 675.84L672.74 675.71L672.9 675.59L673.07 675.47L673.24 675.35L673.41 675.24L673.58 675.14L673.76 675.03L673.94 674.94L674.12 674.84L674.31 674.75L674.5 674.67L674.69 674.59L674.88 674.51L675.07 674.44L675.27 674.37L675.46 674.31L675.66 674.25L675.86 674.2L676.06 674.15L676.27 674.11L676.47 674.07L676.68 674.04L676.88 674.01L677.09 673.99L677.3 673.97L677.51 673.95L680.23 673.77L682.91 673.48L685.56 673.09L688.17 672.6L690.75 672.01L693.28 671.33L695.78 670.55L698.23 669.68L700.64 668.72L703 667.68L705.31 666.55L707.57 665.34L709.78 664.05L711.94 662.67L714.03 661.22L716.07 659.7L718.05 658.1L719.97 656.43L721.82 654.69L723.6 652.89L725.32 651.02L726.96 649.09L728.54 647.09L730.04 645.04L731.46 642.93L732.81 640.77L734.08 638.55L735.26 636.29L736.36 633.97L737.38 631.61L738.31 629.2L739.15 626.75L739.89 624.26L740.55 621.73L741.11 619.17L741.57 616.57L741.93 613.94L742.19 611.27L742.35 608.58L742.4 605.86L742.39 604.6L742.36 603.34L742.3 602.09L742.22 600.83L742.11 599.58L741.98 598.34L741.83 597.1L741.66 595.86L741.46 594.62L741.25 593.4L741.01 592.17L740.74 590.96L740.46 589.74L740.15 588.54L739.82 587.34L739.47 586.15L739.1 584.96L738.7 583.78L738.29 582.61L737.85 581.44L737.39 580.29L736.91 579.14L736.41 578L735.89 576.87L735.35 575.75L734.78 574.64L734.2 573.54L733.6 572.44L732.97 571.36L732.33 570.29L731.66 569.23L730.98 568.18L730.27 567.14L729.54 566.11L728.8 565.1L728.03 564.1L727.25 563.11L726.45 562.13L725.62 561.16L724.78 560.21L724.66 560.08L724.55 559.95L724.44 559.81L724.33 559.67L724.23 559.53L724.13 559.39L724.03 559.25L723.93 559.1L723.84 558.96L723.75 558.81L723.67 558.66L723.58 558.51L723.51 558.36L723.43 558.2L723.36 558.05L723.29 557.89L723.22 557.73L723.15 557.57L723.09 557.41L723.04 557.25L722.98 557.09L722.93 556.92L722.89 556.76L722.84 556.59L722.8 556.42L722.76 556.25L722.73 556.09L722.7 555.92L722.67 555.75L722.65 555.58L722.63 555.4L722.61 555.23L722.6 555.06L722.59 554.89L722.58 554.71L722.58 554.54L722.58 554.36L722.59 554.19L722.59 554.01L722.61 553.84L722.62 553.66L722.64 553.49L722.66 553.32L722.69 553.14L722.72 552.97L722.75 552.8L722.78 552.63L722.82 552.46L722.87 552.3L722.91 552.13L722.96 551.96L723.01 551.8L723.07 551.64L723.13 551.48L723.19 551.32L723.26 551.16L723.33 551L723.4 550.84L723.47 550.69L723.55 550.53L723.63 550.38L723.72 550.23L723.8 550.09L723.89 549.94L723.99 549.79L724.08 549.65L724.18 549.51L724.29 549.37L724.39 549.23L724.5 549.1L724.61 548.97L724.72 548.84L724.84 548.71L724.96 548.58L725.08 548.46L725.2 548.34L725.33 548.22L725.46 548.1L725.59 547.98L725.73 547.87L726.92 546.88L728.08 545.87L729.22 544.84L730.33 543.78L731.41 542.7L732.47 541.6L733.5 540.48L734.5 539.34L735.48 538.18L736.42 537L737.34 535.8L738.24 534.58L739.1 533.35L739.94 532.09L740.74 530.83L741.52 529.54L742.27 528.24L742.99 526.92L743.68 525.59L744.34 524.24L744.97 522.88L745.57 521.5L746.14 520.12L746.68 518.71L747.18 517.3L747.66 515.88L748.1 514.44L748.52 512.99L748.9 511.53L749.25 510.06L749.57 508.59L749.85 507.1L750.1 505.6L750.32 504.1L750.51 502.59L750.66 501.07L750.78 499.54L750.87 498.01L750.92 496.47L750.94 494.93L750.88 492.31L750.73 489.71L750.48 487.13L750.13 484.58L749.69 482.06L749.15 479.56L748.53 477.1L747.81 474.67L747 472.28L746.11 469.93L745.13 467.61L744.08 465.34L742.94 463.11L741.72 460.93L740.43 458.79L739.06 456.71L737.62 454.68L736.1 452.7L734.52 450.78L732.87 448.91L731.16 447.11L729.38 445.37L727.54 443.69L725.64 442.08L723.68 440.54L721.67 439.07L719.6 437.67L717.47 436.34L715.3 435.09L713.08 433.92L710.81 432.83L708.5 431.82L706.14 430.9L703.74 430.06L701.31 429.32L698.83 428.66L696.32 428.09L693.77 427.62L691.2 427.25L688.59 426.97L688.31 426.94L688.04 426.91L687.77 426.86L687.5 426.81L687.23 426.75L686.97 426.67L686.71 426.6L686.45 426.51L686.2 426.41L685.95 426.31L685.71 426.2L685.46 426.08L685.23 425.96L684.99 425.83L684.77 425.69L684.54 425.54L684.33 425.39L684.11 425.23L683.9 425.07L683.7 424.89L683.5 424.72L683.31 424.53L683.13 424.34L682.95 424.14L682.77 423.94L682.6 423.74L682.44 423.52L682.29 423.3L682.14 423.08L682 422.85L681.86 422.62L681.74 422.38L681.62 422.14L681.5 421.89L681.4 421.64L681.3 421.39L681.21 421.13L681.13 420.86L681.06 420.6L681 420.33L680.33 417.6L679.56 414.93L678.68 412.31L677.7 409.73L676.62 407.21L675.45 404.74L674.18 402.34L672.81 399.99L671.36 397.7L669.82 395.48L668.2 393.32L666.5 391.23L664.72 389.21L662.86 387.27L660.93 385.39L658.94 383.6L656.87 381.89L654.74 380.25L652.54 378.7L650.29 377.24L647.97 375.86L645.61 374.58L643.19 373.38L640.73 372.28L638.21 371.28L635.66 370.38L633.06 369.58L630.42 368.88L627.75 368.28L625.04 367.8L622.31 367.42L619.55 367.15L616.76 367L613.95 366.97L611.12 367.05L608.27 367.26L605.41 367.58L602.53 368.03L599.65 368.61L596.76 369.32L596.49 369.39L596.21 369.45L595.94 369.5L595.66 369.54L595.39 369.57L595.11 369.59L594.84 369.61L594.57 369.61L594.29 369.61L594.02 369.59L593.75 369.57L593.48 369.54L593.21 369.5L592.94 369.46L592.68 369.4L592.42 369.34L592.16 369.27L591.9 369.19L591.65 369.1L591.39 369L591.15 368.9L590.9 368.79L590.66 368.67L590.42 368.54L590.19 368.41L589.96 368.27L589.73 368.12L589.51 367.96L589.29 367.8L589.08 367.63L588.88 367.45L588.67 367.26L588.48 367.07L588.29 366.87L588.1 366.66L587.93 366.45L587.76 366.23L587.59 366L587.43 365.77L587.28 365.53L586.32 364.01L585.33 362.52L584.3 361.06L583.24 359.64L582.15 358.24L581.03 356.88L579.88 355.55L578.7 354.26L577.49 353L576.25 351.77L574.98 350.58L573.68 349.42L572.36 348.3L571.02 347.22L569.64 346.17L568.25 345.16L566.83 344.18L565.38 343.24L563.92 342.34L562.43 341.48L560.92 340.66L559.39 339.87L557.84 339.12L556.27 338.42L554.68 337.75L553.07 337.13L551.45 336.54L549.81 336L548.15 335.49L546.48 335.03L544.79 334.61L543.09 334.24L541.38 333.9L539.65 333.61L537.92 333.36L536.17 333.16L534.41 333L532.64 332.89L530.86 332.82L529.07 332.8L526.68 332.84L524.32 332.97Z" id="c1GhJcjX3H"></path><path d="M676.89 674.01C628.87 679.96 605.53 645.46 604.49 643.88C601.93 639.94 596.67 638.81 592.71 641.37C588.75 643.92 587.61 649.2 590.17 653.16C591.27 654.86 615.71 691.77 665.76 691.77C669.99 691.77 674.4 691.52 678.99 690.94C683.67 690.35 686.99 686.1 686.4 681.42C685.82 676.74 681.56 673.39 676.89 674.01Z" id="dcK9dTsxD"></path><path d="M445.76 382.7C445.58 383.4 441.63 400.06 441.07 414.6C440.89 419.32 444.56 423.28 449.27 423.46C449.38 423.47 449.49 423.47 449.6 423.47C454.17 423.47 457.95 419.86 458.13 415.26C458.62 402.42 462.32 386.83 462.35 386.68C463.45 382.1 460.62 377.49 456.04 376.4C451.46 375.29 446.86 378.12 445.76 382.7Z" id="c4TdbfUG9"></path><path d="M302.75 436C298.75 438.46 297.51 443.69 299.96 447.7C301.56 450.34 304.38 451.79 307.25 451.79C308.75 451.79 310.28 451.39 311.67 450.55C311.83 450.45 328.64 440.46 348.53 443.63C353.18 444.35 357.55 441.19 358.3 436.54C359.04 431.89 355.87 427.51 351.22 426.77C324.92 422.59 303.65 435.45 302.75 436Z" id="a9mwZeG77T"></path><path d="M688.56 409.98C683.85 410.4 680.4 414.55 680.82 419.24C680.83 419.35 681.76 429.7 681.84 438.95C681.88 443.63 685.7 447.4 690.37 447.4C690.4 447.4 690.42 447.4 690.46 447.41C695.17 447.37 698.96 443.51 698.91 438.8C698.83 428.88 697.87 418.16 697.82 417.71C697.4 413 693.27 409.62 688.56 409.98Z" id="b4L7qRFrD"></path><path d="M481.22 598.44C479.65 606.88 467.86 620.53 460.79 627.15C457.35 630.37 457.17 635.77 460.39 639.21C462.06 641.01 464.34 641.92 466.62 641.92C468.7 641.92 470.79 641.15 472.45 639.62C474.74 637.48 494.92 618.24 498 601.56C498.87 596.92 495.8 592.47 491.17 591.61C486.54 590.74 482.08 593.81 481.22 598.44Z" id="eE3FBoFnz"></path><path d="M517.2 656.01C512.47 655.94 508.5 659.44 508.29 664.14C508.08 668.85 511.71 672.84 516.42 673.06C519.35 673.19 542.81 674.27 545.74 674.41C545.88 674.41 546.01 674.41 546.14 674.41C550.67 674.41 554.44 670.85 554.66 666.27C554.87 661.56 551.24 657.57 546.53 657.36C540.66 657.09 520.14 656.14 517.2 656.01Z" id="cGCHippoe"></path><path d="M337.83 557.41C333.16 556.75 328.84 560 328.18 564.67C325.98 580.25 328.1 589.58 328.35 590.59C329.29 594.47 332.77 597.06 336.6 597.06C337.25 597.06 337.92 596.98 338.58 596.82C343.14 595.75 345.97 591.16 344.93 586.6C344.92 586.52 343.35 579.34 345.08 567.05C345.74 562.38 342.49 558.06 337.83 557.41Z" id="b11a0OVPXt"></path><path d="M725.47 548.1C725.39 548.17 716.83 555.37 692.39 563.93C687.94 565.49 685.6 570.36 687.16 574.8C688.38 578.32 691.69 580.52 695.21 580.52C696.14 580.52 697.1 580.36 698.03 580.04C725.85 570.3 735.79 561.78 736.83 560.84C740.29 557.71 740.57 552.41 737.48 548.91C734.39 545.4 729.01 545.06 725.47 548.1Z" id="h3ZmBhwh8T"></path><path d="M307.2 754.47L269.53 716.8L307.2 679.13L344.87 716.8L307.2 754.47ZM307.2 730.33L320.73 716.8L307.2 703.27L293.67 716.8L307.2 730.33Z" id="b44sY4XZLg"></path><path d="M298.67 674.13C298.67 675.84 298.67 689.49 298.67 691.2C298.67 695.91 302.49 699.73 307.2 699.73C311.91 699.73 315.73 695.91 315.73 691.2C315.73 689.49 315.73 675.84 315.73 674.13C315.73 669.42 311.91 665.6 307.2 665.6C302.49 665.6 298.67 669.42 298.67 674.13Z" id="f5gjS7KBO"></path><path d="M332.8 708.27C328.09 708.27 324.27 712.09 324.27 716.8C324.27 721.51 328.09 725.33 332.8 725.33C334.51 725.33 348.16 725.33 349.87 725.33C354.58 725.33 358.4 721.51 358.4 716.8C358.4 712.09 354.58 708.27 349.87 708.27C346.45 708.27 334.51 708.27 332.8 708.27Z" id="cSSHri4ld"></path><path d="M298.67 742.4C298.67 744.11 298.67 757.76 298.67 759.47C298.67 764.18 302.49 768 307.2 768C311.91 768 315.73 764.18 315.73 759.47C315.73 757.76 315.73 744.11 315.73 742.4C315.73 737.69 311.91 733.87 307.2 733.87C302.49 733.87 298.67 737.69 298.67 742.4Z" id="a8cL0nifp1"></path><path d="M264.53 708.27C259.82 708.27 256 712.09 256 716.8C256 721.51 259.82 725.33 264.53 725.33C266.24 725.33 279.89 725.33 281.6 725.33C286.31 725.33 290.13 721.51 290.13 716.8C290.13 712.09 286.31 708.27 281.6 708.27C278.19 708.27 266.24 708.27 264.53 708.27Z" id="d3im95MAoX"></path><path d="M717.5 256.03L717.84 256.06L718.18 256.11L718.52 256.17L718.85 256.25L719.18 256.34L719.5 256.44L719.81 256.55L720.12 256.67L720.42 256.81L720.72 256.95L721.01 257.11L721.29 257.28L721.57 257.46L721.84 257.65L722.1 257.85L722.35 258.06L722.6 258.27L722.83 258.5L723.06 258.74L723.28 258.98L723.49 259.23L723.69 259.5L723.88 259.76L724.05 260.04L724.22 260.32L724.38 260.61L724.53 260.91L724.66 261.21L724.79 261.52L724.9 261.84L725 262.16L725.09 262.48L725.16 262.81L725.22 263.15L725.27 263.49L725.31 263.83L725.33 264.18L725.33 264.53L725.36 265.94L725.45 267.33L725.59 268.7L725.78 270.06L726.03 271.4L726.33 272.73L726.68 274.03L727.08 275.31L727.52 276.57L728.02 277.81L728.56 279.02L729.15 280.21L729.78 281.37L730.45 282.5L731.17 283.61L731.93 284.68L732.72 285.72L733.56 286.74L734.43 287.71L735.34 288.66L736.29 289.57L737.26 290.44L738.28 291.28L739.32 292.07L740.39 292.83L741.5 293.55L742.63 294.22L743.79 294.85L744.98 295.44L746.19 295.98L747.43 296.48L748.69 296.92L749.97 297.32L751.27 297.67L752.6 297.97L753.94 298.22L755.3 298.41L756.67 298.55L758.06 298.64L759.47 298.67L759.82 298.67L760.17 298.69L760.51 298.73L760.85 298.78L761.19 298.84L761.52 298.91L761.84 299L762.16 299.1L762.48 299.21L762.79 299.34L763.09 299.47L763.39 299.62L763.68 299.78L763.96 299.95L764.24 300.12L764.51 300.31L764.77 300.51L765.02 300.72L765.26 300.94L765.5 301.17L765.73 301.4L765.95 301.65L766.15 301.9L766.35 302.16L766.54 302.43L766.72 302.71L766.89 302.99L767.05 303.28L767.19 303.58L767.33 303.88L767.45 304.19L767.56 304.5L767.66 304.82L767.75 305.15L767.83 305.48L767.89 305.82L767.94 306.16L767.97 306.5L767.99 306.85L768 307.2L767.99 307.55L767.97 307.9L767.94 308.24L767.89 308.58L767.83 308.92L767.75 309.25L767.66 309.58L767.56 309.9L767.45 310.21L767.33 310.52L767.19 310.82L767.05 311.12L766.89 311.41L766.72 311.69L766.54 311.97L766.35 312.24L766.15 312.5L765.95 312.75L765.73 313L765.5 313.23L765.26 313.46L765.02 313.68L764.77 313.89L764.51 314.09L764.24 314.27L763.96 314.45L763.68 314.62L763.39 314.78L763.09 314.93L762.79 315.06L762.48 315.19L762.16 315.3L761.84 315.4L761.52 315.48L761.19 315.56L760.85 315.62L760.51 315.67L760.17 315.7L759.82 315.73L759.47 315.73L758.06 315.76L756.67 315.85L755.3 315.99L753.94 316.18L752.6 316.43L751.27 316.73L749.97 317.08L748.69 317.48L747.43 317.92L746.19 318.42L744.98 318.96L743.79 319.55L742.63 320.18L741.5 320.85L740.39 321.57L739.32 322.33L738.28 323.12L737.26 323.96L736.29 324.83L735.34 325.74L734.43 326.68L733.56 327.66L732.72 328.67L731.93 329.72L731.17 330.79L730.45 331.9L729.78 333.03L729.15 334.19L728.56 335.38L728.02 336.59L727.52 337.83L727.08 339.09L726.68 340.37L726.33 341.67L726.03 342.99L725.78 344.34L725.59 345.69L725.45 347.07L725.36 348.46L725.33 349.87L725.33 350.22L725.31 350.56L725.27 350.91L725.22 351.25L725.16 351.58L725.09 351.92L725 352.24L724.9 352.56L724.79 352.88L724.66 353.19L724.53 353.49L724.38 353.79L724.22 354.08L724.05 354.36L723.88 354.64L723.69 354.9L723.49 355.16L723.28 355.42L723.06 355.66L722.83 355.9L722.6 356.13L722.35 356.34L722.1 356.55L721.84 356.75L721.57 356.94L721.29 357.12L721.01 357.29L720.72 357.45L720.42 357.59L720.12 357.73L719.81 357.85L719.5 357.96L719.18 358.06L718.85 358.15L718.52 358.23L718.18 358.29L717.84 358.34L717.5 358.37L717.15 358.39L716.8 358.4L716.45 358.39L716.1 358.37L715.76 358.34L715.42 358.29L715.08 358.23L714.75 358.15L714.43 358.06L714.1 357.96L713.79 357.85L713.48 357.73L713.18 357.59L712.88 357.45L712.59 357.29L712.31 357.12L712.03 356.94L711.76 356.75L711.5 356.55L711.25 356.34L711 356.13L710.77 355.9L710.54 355.66L710.32 355.42L710.11 355.16L709.92 354.9L709.73 354.64L709.55 354.36L709.38 354.08L709.22 353.79L709.07 353.49L708.94 353.19L708.82 352.88L708.7 352.56L708.6 352.24L708.52 351.92L708.44 351.58L708.38 351.25L708.33 350.91L708.3 350.56L708.28 350.22L708.27 349.87L708.24 348.46L708.15 347.07L708.01 345.69L707.82 344.34L707.57 342.99L707.27 341.67L706.92 340.37L706.53 339.09L706.08 337.83L705.58 336.59L705.04 335.38L704.45 334.19L703.82 333.03L703.15 331.9L702.43 330.79L701.67 329.72L700.88 328.67L700.04 327.66L699.17 326.68L698.26 325.74L697.32 324.83L696.34 323.96L695.33 323.12L694.28 322.33L693.21 321.57L692.1 320.85L690.97 320.18L689.81 319.55L688.62 318.96L687.41 318.42L686.17 317.92L684.91 317.48L683.63 317.08L682.33 316.73L681.01 316.43L679.67 316.18L678.31 315.99L676.93 315.85L675.54 315.76L674.14 315.73L673.78 315.73L673.44 315.7L673.09 315.67L672.75 315.62L672.42 315.56L672.09 315.48L671.76 315.4L671.44 315.3L671.12 315.19L670.81 315.06L670.51 314.93L670.21 314.78L669.92 314.62L669.64 314.45L669.37 314.27L669.1 314.09L668.84 313.89L668.58 313.68L668.34 313.46L668.1 313.23L667.88 313L667.66 312.75L667.45 312.5L667.25 312.24L667.06 311.97L666.88 311.69L666.71 311.41L666.55 311.12L666.41 310.82L666.27 310.52L666.15 310.21L666.04 309.9L665.94 309.58L665.85 309.25L665.78 308.92L665.71 308.58L665.67 308.24L665.63 307.9L665.61 307.55L665.6 307.2L665.61 306.85L665.63 306.5L665.67 306.16L665.71 305.82L665.78 305.48L665.85 305.15L665.94 304.82L666.04 304.5L666.15 304.19L666.27 303.88L666.41 303.58L666.55 303.28L666.71 302.99L666.88 302.71L667.06 302.43L667.25 302.16L667.45 301.9L667.66 301.65L667.88 301.4L668.1 301.17L668.34 300.94L668.58 300.72L668.84 300.51L669.1 300.31L669.37 300.12L669.64 299.95L669.92 299.78L670.21 299.62L670.51 299.47L670.81 299.34L671.12 299.21L671.44 299.1L671.76 299L672.09 298.91L672.42 298.84L672.75 298.78L673.09 298.73L673.44 298.69L673.78 298.67L674.14 298.67L675.54 298.64L676.93 298.55L678.31 298.41L679.66 298.22L681.01 297.97L682.33 297.67L683.63 297.32L684.91 296.92L686.17 296.48L687.41 295.98L688.62 295.44L689.81 294.85L690.97 294.22L692.1 293.55L693.21 292.83L694.28 292.07L695.33 291.28L696.34 290.44L697.32 289.57L698.26 288.66L699.17 287.71L700.04 286.74L700.88 285.72L701.67 284.68L702.43 283.61L703.15 282.5L703.82 281.37L704.45 280.21L705.04 279.02L705.58 277.81L706.08 276.57L706.53 275.31L706.92 274.03L707.27 272.73L707.57 271.4L707.82 270.06L708.01 268.7L708.15 267.33L708.24 265.94L708.27 264.53L708.28 264.18L708.3 263.83L708.33 263.49L708.38 263.15L708.44 262.81L708.52 262.48L708.6 262.16L708.7 261.84L708.82 261.52L708.94 261.21L709.07 260.91L709.22 260.61L709.38 260.32L709.55 260.04L709.73 259.76L709.92 259.5L710.11 259.23L710.32 258.98L710.54 258.74L710.77 258.5L711 258.27L711.25 258.06L711.5 257.85L711.76 257.65L712.03 257.46L712.31 257.28L712.59 257.11L712.88 256.95L713.18 256.81L713.48 256.67L713.79 256.55L714.1 256.44L714.43 256.34L714.75 256.25L715.08 256.17L715.42 256.11L715.76 256.06L716.1 256.03L716.45 256.01L716.8 256L717.15 256.01L717.5 256.03ZM715.33 294.9L714.55 295.92L713.75 296.93L712.93 297.91L712.08 298.86L711.21 299.8L710.32 300.72L709.4 301.61L708.46 302.48L707.51 303.33L706.53 304.15L705.52 304.95L704.5 305.73L703.46 306.48L702.4 307.2L703.46 307.92L704.5 308.67L705.52 309.45L706.53 310.25L707.51 311.07L708.47 311.92L709.4 312.79L710.32 313.68L711.21 314.6L712.08 315.53L712.93 316.49L713.75 317.47L714.55 318.48L715.33 319.5L716.08 320.54L716.8 321.6L717.52 320.54L718.27 319.5L719.05 318.47L719.85 317.47L720.67 316.49L721.52 315.53L722.39 314.6L723.28 313.68L724.2 312.79L725.13 311.92L726.09 311.07L727.07 310.25L728.08 309.45L729.1 308.67L730.14 307.92L731.2 307.2L730.14 306.48L729.1 305.73L728.08 304.95L727.07 304.15L726.09 303.33L725.13 302.48L724.2 301.61L723.28 300.72L722.39 299.8L721.52 298.86L720.67 297.91L719.85 296.92L719.05 295.92L718.27 294.9L717.52 293.86L716.8 292.8L716.08 293.86L715.33 294.9Z" id="a2InyfrR19"></path></defs><g><g><g><use xlink:href="#caOw0QhLF" opacity="1" fill="#313139" fill-opacity="1"></use></g><g><use xlink:href="#j1Cqlbxu8e" opacity="1" fill="#cdedf6" fill-opacity="1"></use><g><use xlink:href="#j1Cqlbxu8e" opacity="1" fill-opacity="0" stroke="#000000" stroke-width="1" stroke-opacity="0"></use></g></g><g><use xlink:href="#f9X3REsLc" opacity="1" fill="#cdedf6" fill-opacity="1"></use><g><use xlink:href="#f9X3REsLc" opacity="1" fill-opacity="0" stroke="#000000" stroke-width="1" stroke-opacity="0"></use></g></g><g><use xlink:href="#a3okiFq7i4" opacity="1" fill="#cdedf6" fill-opacity="1"></use><g><use xlink:href="#a3okiFq7i4" opacity="1" fill-opacity="0" stroke="#000000" stroke-width="1" stroke-opacity="0"></use></g></g><g><use xlink:href="#desri0QBO" opacity="1" fill="#cdedf6" fill-opacity="1"></use><g><use xlink:href="#desri0QBO" opacity="1" fill-opacity="0" stroke="#000000" stroke-width="1" stroke-opacity="0"></use></g></g><g><use xlink:href="#d1lYaSVCBM" opacity="1" fill="#cdedf6" fill-opacity="1"></use><g><use xlink:href="#d1lYaSVCBM" opacity="1" fill-opacity="0" stroke="#000000" stroke-width="1" stroke-opacity="0"></use></g></g><g><use xlink:href="#gkGMFi5UX" opacity="1" fill="#cdedf6" fill-opacity="1"></use><g><use xlink:href="#gkGMFi5UX" opacity="1" fill-opacity="0" stroke="#000000" stroke-width="1" stroke-opacity="0"></use></g></g><g><use xlink:href="#c1GhJcjX3H" opacity="1" fill="#cdedf6" fill-opacity="1"></use><g><use xlink:href="#c1GhJcjX3H" opacity="1" fill-opacity="0" stroke="#000000" stroke-width="1" stroke-opacity="0"></use></g></g><g><use xlink:href="#dcK9dTsxD" opacity="1" fill="#cdedf6" fill-opacity="1"></use><g><use xlink:href="#dcK9dTsxD" opacity="1" fill-opacity="0" stroke="#000000" stroke-width="1" stroke-opacity="0"></use></g></g><g><use xlink:href="#c4TdbfUG9" opacity="1" fill="#cdedf6" fill-opacity="1"></use><g><use xlink:href="#c4TdbfUG9" opacity="1" fill-opacity="0" stroke="#000000" stroke-width="1" stroke-opacity="0"></use></g></g><g><use xlink:href="#a9mwZeG77T" opacity="1" fill="#cdedf6" fill-opacity="1"></use><g><use xlink:href="#a9mwZeG77T" opacity="1" fill-opacity="0" stroke="#000000" stroke-width="1" stroke-opacity="0"></use></g></g><g><use xlink:href="#b4L7qRFrD" opacity="1" fill="#cdedf6" fill-opacity="1"></use><g><use xlink:href="#b4L7qRFrD" opacity="1" fill-opacity="0" stroke="#000000" stroke-width="1" stroke-opacity="0"></use></g></g><g><use xlink:href="#eE3FBoFnz" opacity="1" fill="#cdedf6" fill-opacity="1"></use><g><use xlink:href="#eE3FBoFnz" opacity="1" fill-opacity="0" stroke="#000000" stroke-width="1" stroke-opacity="0"></use></g></g><g><use xlink:href="#cGCHippoe" opacity="1" fill="#cdedf6" fill-opacity="1"></use><g><use xlink:href="#cGCHippoe" opacity="1" fill-opacity="0" stroke="#000000" stroke-width="1" stroke-opacity="0"></use></g></g><g><use xlink:href="#b11a0OVPXt" opacity="1" fill="#cdedf6" fill-opacity="1"></use><g><use xlink:href="#b11a0OVPXt" opacity="1" fill-opacity="0" stroke="#000000" stroke-width="1" stroke-opacity="0"></use></g></g><g><use xlink:href="#h3ZmBhwh8T" opacity="1" fill="#cdedf6" fill-opacity="1"></use><g><use xlink:href="#h3ZmBhwh8T" opacity="1" fill-opacity="0" stroke="#000000" stroke-width="1" stroke-opacity="0"></use></g></g><g><use xlink:href="#b44sY4XZLg" opacity="1" fill="#cdedf6" fill-opacity="1"></use><g><use xlink:href="#b44sY4XZLg" opacity="1" fill-opacity="0" stroke="#000000" stroke-width="1" stroke-opacity="0"></use></g></g><g><use xlink:href="#f5gjS7KBO" opacity="1" fill="#cdedf6" fill-opacity="1"></use><g><use xlink:href="#f5gjS7KBO" opacity="1" fill-opacity="0" stroke="#000000" stroke-width="1" stroke-opacity="0"></use></g></g><g><use xlink:href="#cSSHri4ld" opacity="1" fill="#cdedf6" fill-opacity="1"></use><g><use xlink:href="#cSSHri4ld" opacity="1" fill-opacity="0" stroke="#000000" stroke-width="1" stroke-opacity="0"></use></g></g><g><use xlink:href="#a8cL0nifp1" opacity="1" fill="#cdedf6" fill-opacity="1"></use><g><use xlink:href="#a8cL0nifp1" opacity="1" fill-opacity="0" stroke="#000000" stroke-width="1" stroke-opacity="0"></use></g></g><g><use xlink:href="#d3im95MAoX" opacity="1" fill="#cdedf6" fill-opacity="1"></use><g><use xlink:href="#d3im95MAoX" opacity="1" fill-opacity="0" stroke="#000000" stroke-width="1" stroke-opacity="0"></use></g></g><g><use xlink:href="#a2InyfrR19" opacity="1" fill="#cdedf6" fill-opacity="1"></use><g><use xlink:href="#a2InyfrR19" opacity="1" fill-opacity="0" stroke="#000000" stroke-width="1" stroke-opacity="0"></use></g></g></g></g></svg>