<?xml version="1.0" encoding="UTF-8" standalone="no"?>
<!DOCTYPE svg PUBLIC "-//W3C//DTD SVG 1.1//EN" "http://www.w3.org/Graphics/SVG/1.1/DTD/svg11.dtd">
<svg version="1.1" xmlns="http://www.w3.org/2000/svg" xmlns:xlink="http://www.w3.org/1999/xlink" preserveAspectRatio="xMidYMid meet" viewBox="0 0 4096 4096" width="4096" height="4096"><defs><path d="M2026.61 2110.1C2017.99 2109.97 2010.77 2116.34 2010.38 2124.9C2009.99 2133.47 2016.61 2140.74 2025.18 2141.13C2030.52 2141.37 2073.21 2143.34 2078.54 2143.58C2078.79 2143.6 2079.04 2143.6 2079.27 2143.6C2087.52 2143.6 2094.38 2137.1 2094.77 2128.78C2095.16 2120.21 2088.54 2112.94 2079.97 2112.55C2069.3 2112.06 2031.94 2110.34 2026.61 2110.1Z" id="d1YI6cCcVj"></path><path d="M2017.13 1910.12C2017.13 1858.73 2058.94 1816.94 2110.32 1816.94C2118.89 1816.94 2125.85 1809.98 2125.85 1801.41C2125.85 1792.83 2118.89 1785.88 2110.32 1785.88C2041.81 1785.88 1986.07 1841.62 1986.07 1910.12C1986.07 1978.63 2041.81 2034.37 2110.32 2034.37C2118.89 2034.37 2125.85 2027.41 2125.85 2018.84C2125.85 2010.27 2118.89 2003.31 2110.32 2003.31C2058.94 2003.31 2017.13 1961.51 2017.13 1910.12Z" id="aNZl5HZ0s"></path><path d="M0 0L4122.22 0L4122.22 4122.22L0 4122.22L0 0Z" id="b2HAneipQ8"></path><path d="M1690.99 2205.21C1682.42 2205.21 1675.46 2212.17 1675.46 2220.74C1675.46 2229.31 1682.42 2236.27 1690.99 2236.27C1694.09 2236.27 1718.94 2236.27 1722.05 2236.27C1730.62 2236.27 1737.58 2229.31 1737.58 2220.74C1737.58 2212.17 1730.62 2205.21 1722.05 2205.21C1715.84 2205.21 1694.09 2205.21 1690.99 2205.21Z" id="h3ZgLSD1vt"></path><path d="M2362.59 2022.61C2344.97 2040.21 2321.59 2049.9 2296.69 2049.9C2271.79 2049.9 2248.4 2040.21 2230.79 2022.61C2213.2 2005 2203.5 1981.61 2203.5 1956.71C2203.5 1931.82 2213.2 1908.43 2230.79 1890.82C2236.87 1884.74 2236.87 1874.93 2230.79 1868.86C2224.73 1862.78 2214.9 1862.78 2208.83 1868.86C2185.36 1892.32 2172.44 1923.52 2172.44 1956.71C2172.44 1989.9 2185.36 2021.1 2208.83 2044.57C2232.3 2068.04 2263.5 2080.96 2296.69 2080.96C2329.88 2080.96 2361.08 2068.04 2384.55 2044.57C2390.62 2038.5 2390.62 2028.68 2384.55 2022.61C2378.47 2016.54 2368.64 2016.54 2362.59 2022.61Z" id="avseUIU7J"></path><path d="M2250.1 1723.75C2216.91 1723.75 2185.71 1736.67 2162.24 1760.14C2156.17 1766.21 2156.17 1776.03 2162.24 1782.1C2168.31 1788.17 2178.14 1788.18 2184.2 1782.1C2201.81 1764.51 2225.2 1754.81 2250.1 1754.81C2274.99 1754.81 2298.38 1764.51 2315.98 1782.1C2339.62 1805.72 2348.79 1840.44 2339.96 1872.71C2337.69 1880.99 2342.55 1889.53 2350.83 1891.79C2352.21 1892.17 2353.59 1892.35 2354.94 1892.35C2361.78 1892.35 2368.04 1887.82 2369.91 1880.92C2381.71 1837.92 2369.45 1791.64 2337.95 1760.14C2314.49 1736.67 2283.29 1723.75 2250.1 1723.75Z" id="bhcB3CANR"></path><path d="M2179.23 1630.41C2146.04 1630.41 2114.84 1643.33 2091.37 1666.8C2085.3 1672.87 2085.3 1682.69 2091.37 1688.76C2097.45 1694.84 2107.28 1694.84 2113.33 1688.76C2130.95 1671.17 2154.33 1661.47 2179.23 1661.47C2204.13 1661.47 2227.53 1671.17 2245.13 1688.76C2248.16 1691.79 2252.13 1693.31 2256.11 1693.31C2260.08 1693.31 2264.05 1691.79 2267.09 1688.76C2273.16 1682.69 2273.16 1672.87 2267.09 1666.8C2243.62 1643.33 2212.42 1630.41 2179.23 1630.41Z" id="d16kvwdk6H"></path><path d="M1767.85 1786.65C1734.66 1786.65 1703.46 1799.57 1679.99 1823.04C1673.92 1829.11 1673.92 1838.93 1679.99 1845C1686.06 1851.07 1695.9 1851.07 1701.95 1845C1719.57 1827.41 1742.95 1817.71 1767.85 1817.71C1792.75 1817.71 1816.15 1827.41 1833.75 1845C1851.34 1862.61 1861.04 1886 1861.04 1910.9C1861.04 1935.79 1851.34 1959.2 1833.75 1976.8C1827.67 1982.87 1827.67 1992.68 1833.75 1998.76C1836.78 2001.78 1840.75 2003.31 1844.73 2003.31C1848.71 2003.31 1852.68 2001.78 1855.71 1998.76C1879.18 1975.29 1892.1 1944.09 1892.1 1910.9C1892.1 1877.71 1879.17 1846.51 1855.71 1823.04C1832.24 1799.57 1801.04 1786.65 1767.85 1786.65Z" id="h5Ai2xRMKI"></path><path d="M2317.24 2142.85C2229.84 2153.69 2187.37 2090.9 2185.47 2088.03C2180.81 2080.85 2171.23 2078.8 2164.02 2083.45C2156.82 2088.09 2154.74 2097.71 2159.4 2104.91C2161.4 2108 2205.9 2175.19 2296.98 2175.19C2304.67 2175.19 2312.7 2174.72 2321.06 2173.67C2329.57 2172.61 2335.61 2164.86 2334.55 2156.35C2333.5 2147.84 2325.73 2141.73 2317.24 2142.85Z" id="b3BYlpyMOM"></path><path d="M1896.57 1612.68C1896.26 1613.95 1889.05 1644.27 1888.04 1670.73C1887.72 1679.32 1894.39 1686.53 1902.97 1686.85C1903.17 1686.87 1903.37 1686.87 1903.57 1686.87C1911.88 1686.87 1918.76 1680.3 1919.09 1671.93C1919.97 1648.57 1926.71 1620.2 1926.78 1619.92C1928.76 1611.57 1923.62 1603.19 1915.28 1601.2C1906.96 1599.18 1898.57 1604.34 1896.57 1612.68Z" id="cGOLmivGe"></path><path d="M1636.3 1709.68C1629.02 1714.16 1626.75 1723.68 1631.21 1730.97C1634.13 1735.77 1639.25 1738.41 1644.49 1738.41C1647.22 1738.41 1650 1737.68 1652.53 1736.16C1652.83 1735.98 1683.42 1717.79 1719.61 1723.56C1728.07 1724.88 1736.04 1719.12 1737.39 1710.66C1738.75 1702.2 1732.97 1694.23 1724.5 1692.88C1676.64 1685.27 1637.93 1708.67 1636.3 1709.68Z" id="e8Dr4G5PZ"></path><path d="M2338.47 1662.31C2329.91 1663.09 2323.62 1670.64 2324.4 1679.18C2324.41 1679.38 2326.11 1698.22 2326.24 1715.04C2326.32 1723.57 2333.26 1730.43 2341.77 1730.43C2341.82 1730.43 2341.85 1730.43 2341.93 1730.45C2350.5 1730.37 2357.4 1723.35 2357.32 1714.78C2357.17 1696.71 2355.41 1677.21 2355.33 1676.38C2354.56 1667.83 2347.04 1661.66 2338.47 1662.31Z" id="a33lYQNzRz"></path><path d="M1961.11 2005.32C1958.26 2020.68 1936.79 2045.53 1923.93 2057.57C1917.67 2063.44 1917.35 2073.27 1923.2 2079.53C1926.25 2082.81 1930.39 2084.45 1934.54 2084.45C1938.33 2084.45 1942.14 2083.06 1945.15 2080.28C1949.33 2076.38 1986.04 2041.36 1991.66 2010.99C1993.23 2002.56 1987.66 1994.45 1979.22 1992.89C1970.79 1991.3 1962.68 1996.89 1961.11 2005.32Z" id="ipn0BF2Oo"></path><path d="M1914.54 1698.02C1891.07 1721.48 1878.15 1752.68 1878.15 1785.87C1878.15 1819.06 1891.07 1850.27 1914.54 1873.73C1917.57 1876.76 1921.54 1878.28 1925.52 1878.28C1929.48 1878.28 1933.47 1876.76 1936.5 1873.73C1942.57 1867.66 1942.57 1857.84 1936.5 1851.77C1918.9 1834.16 1909.21 1810.77 1909.21 1785.87C1909.21 1760.98 1918.9 1737.57 1936.5 1719.98C1960.45 1696 1995.58 1686.9 2028.18 1696.31C2036.44 1698.67 2045.03 1693.9 2047.39 1685.65C2049.77 1677.42 2045 1668.8 2036.75 1666.44C1993.31 1653.97 1946.47 1666.07 1914.54 1698.02Z" id="a5Um450Hej"></path><path d="M1700.14 1930.64C1691.64 1929.44 1683.78 1935.36 1682.59 1943.86C1678.58 1972.22 1682.43 1989.19 1682.88 1991.04C1684.6 1998.1 1690.92 2002.81 1697.9 2002.81C1699.09 2002.81 1700.31 2002.67 1701.5 2002.37C1709.81 2000.42 1714.95 1992.08 1713.07 1983.77C1713.04 1983.63 1710.18 1970.57 1713.34 1948.19C1714.53 1939.69 1708.63 1931.83 1700.14 1930.64Z" id="b2EmBLuv3n"></path><path d="M2405.65 1913.71C2405.5 1913.83 2389.92 1926.94 2345.44 1942.52C2337.35 1945.35 2333.09 1954.22 2335.92 1962.31C2338.16 1968.7 2344.17 1972.71 2350.58 1972.71C2352.27 1972.71 2354.01 1972.42 2355.7 1971.84C2406.35 1954.1 2424.43 1938.6 2426.32 1936.9C2432.63 1931.2 2433.13 1921.55 2427.5 1915.17C2421.88 1908.79 2412.1 1908.17 2405.65 1913.71Z" id="d5faoEO3EU"></path><path d="M1644.4 2289.29L1575.84 2220.74L1644.4 2152.19L1712.95 2220.74L1644.4 2289.29ZM1644.4 2245.37L1669.03 2220.74L1644.4 2196.11L1619.76 2220.74L1644.4 2245.37Z" id="cwHFXRmKy"></path><path d="M2055.75 1490.97L2059.51 1491.19L2063.24 1491.51L2066.95 1491.91L2070.64 1492.39L2074.31 1492.96L2077.95 1493.62L2081.57 1494.37L2085.16 1495.19L2088.72 1496.1L2092.25 1497.1L2095.76 1498.17L2099.23 1499.33L2102.67 1500.57L2106.07 1501.89L2109.44 1503.28L2112.77 1504.76L2116.06 1506.32L2119.32 1507.95L2122.53 1509.66L2125.71 1511.44L2128.84 1513.3L2131.93 1515.24L2134.97 1517.24L2137.96 1519.33L2140.91 1521.48L2143.81 1523.71L2146.66 1526L2149.46 1528.37L2152.21 1530.81L2154.9 1533.32L2157.54 1535.89L2160.12 1538.54L2162.64 1541.25L2165.11 1544.03L2167.52 1546.87L2169.86 1549.78L2172.15 1552.75L2174.37 1555.79L2180.32 1554.75L2186.25 1553.95L2192.16 1553.39L2198.04 1553.06L2203.9 1552.96L2209.72 1553.08L2215.49 1553.43L2221.23 1553.99L2226.91 1554.76L2232.54 1555.74L2238.1 1556.93L2243.61 1558.32L2249.04 1559.9L2254.4 1561.68L2259.68 1563.66L2264.88 1565.81L2269.99 1568.15L2275.01 1570.67L2279.93 1573.37L2284.74 1576.23L2289.45 1579.26L2294.05 1582.46L2298.53 1585.82L2302.89 1589.33L2307.12 1592.99L2311.22 1596.81L2315.19 1600.77L2319.01 1604.86L2322.69 1609.1L2326.22 1613.47L2329.59 1617.97L2332.81 1622.59L2335.86 1627.34L2338.74 1632.2L2341.44 1637.18L2343.97 1642.27L2346.31 1647.47L2348.47 1652.77L2350.43 1658.17L2352.2 1663.66L2357.73 1664.65L2363.19 1665.83L2368.58 1667.21L2373.9 1668.78L2379.13 1670.52L2384.28 1672.45L2389.34 1674.56L2394.31 1676.84L2399.18 1679.29L2403.96 1681.9L2408.63 1684.67L2413.19 1687.6L2417.65 1690.68L2421.99 1693.91L2426.22 1697.28L2430.32 1700.8L2434.3 1704.45L2438.16 1708.23L2441.88 1712.15L2445.46 1716.18L2448.91 1720.34L2452.21 1724.61L2455.36 1729L2458.37 1733.5L2461.22 1738.1L2463.92 1742.8L2466.45 1747.6L2468.82 1752.49L2471.02 1757.46L2473.05 1762.53L2474.9 1767.67L2476.57 1772.89L2478.06 1778.19L2479.37 1783.55L2480.48 1788.97L2481.4 1794.46L2482.12 1800L2482.64 1805.6L2482.95 1811.25L2483.06 1816.94L2483.03 1820.06L2482.94 1823.17L2482.78 1826.27L2482.57 1829.36L2482.29 1832.44L2481.96 1835.51L2481.56 1838.56L2481.11 1841.6L2480.59 1844.62L2480.02 1847.63L2479.39 1850.62L2478.7 1853.6L2477.96 1856.56L2477.15 1859.5L2476.29 1862.42L2475.37 1865.31L2474.4 1868.19L2473.37 1871.05L2472.29 1873.89L2471.15 1876.7L2469.95 1879.49L2468.7 1882.25L2467.4 1884.99L2466.04 1887.7L2464.63 1890.39L2463.17 1893.05L2461.65 1895.68L2460.08 1898.28L2458.46 1900.85L2456.79 1903.4L2455.06 1905.91L2453.29 1908.39L2451.46 1910.83L2449.58 1913.25L2447.66 1915.63L2445.68 1917.97L2443.66 1920.28L2441.58 1922.55L2439.46 1924.79L2437.29 1926.99L2438.74 1928.99L2440.16 1931.02L2441.55 1933.07L2442.9 1935.13L2444.21 1937.21L2445.49 1939.32L2446.74 1941.44L2447.96 1943.57L2449.13 1945.73L2450.28 1947.9L2451.39 1950.09L2452.46 1952.29L2453.5 1954.51L2454.5 1956.75L2455.46 1959L2456.39 1961.26L2457.29 1963.54L2458.15 1965.83L2458.97 1968.13L2459.75 1970.45L2460.5 1972.78L2461.21 1975.12L2461.89 1977.47L2462.52 1979.84L2463.12 1982.21L2463.69 1984.6L2464.21 1986.99L2464.7 1989.4L2465.15 1991.81L2465.56 1994.23L2465.93 1996.66L2466.26 1999.1L2466.56 2001.55L2466.82 2004L2467.03 2006.46L2467.21 2008.92L2467.35 2011.39L2467.45 2013.87L2467.51 2016.35L2467.53 2018.84L2467.42 2024.82L2467.08 2030.74L2466.52 2036.61L2465.75 2042.41L2464.77 2048.14L2463.58 2053.8L2462.18 2059.38L2460.59 2064.88L2458.8 2070.3L2456.82 2075.62L2454.65 2080.86L2452.3 2085.99L2449.77 2091.02L2447.06 2095.95L2444.18 2100.77L2441.13 2105.47L2437.92 2110.06L2434.55 2114.52L2431.02 2118.85L2427.35 2123.06L2423.52 2127.13L2419.55 2131.05L2415.44 2134.84L2411.19 2138.48L2406.82 2141.96L2402.31 2145.29L2397.68 2148.46L2392.93 2151.47L2388.06 2154.3L2383.09 2156.97L2378 2159.45L2372.81 2161.76L2367.52 2163.88L2362.13 2165.81L2356.65 2167.55L2351.09 2169.09L2345.43 2170.42L2339.7 2171.56L2333.9 2172.48L2328.02 2173.18L2325.47 2176.85L2322.85 2180.44L2320.16 2183.95L2317.38 2187.38L2314.54 2190.74L2311.62 2194.01L2308.63 2197.21L2305.57 2200.32L2302.45 2203.35L2299.25 2206.3L2296 2209.16L2292.67 2211.94L2289.29 2214.63L2285.85 2217.24L2282.35 2219.76L2278.79 2222.19L2275.18 2224.53L2271.51 2226.78L2267.79 2228.94L2264.02 2231.01L2260.2 2232.98L2256.33 2234.87L2252.41 2236.65L2248.45 2238.35L2244.45 2239.94L2240.4 2241.44L2236.32 2242.85L2232.19 2244.15L2228.03 2245.36L2223.83 2246.46L2219.6 2247.46L2215.33 2248.36L2211.04 2249.16L2206.71 2249.86L2202.35 2250.45L2197.97 2250.93L2193.57 2251.31L2189.13 2251.58L2184.68 2251.75L2180.21 2251.8L2174.72 2251.72L2169.26 2251.47L2163.84 2251.05L2158.46 2250.48L2153.11 2249.74L2147.81 2248.85L2142.56 2247.8L2137.36 2246.59L2132.21 2245.24L2127.12 2243.73L2122.08 2242.08L2117.1 2240.28L2112.19 2238.34L2107.35 2236.26L2102.58 2234.03L2097.88 2231.67L2093.25 2229.18L2088.7 2226.55L2084.24 2223.79L2079.86 2220.9L2075.56 2217.89L2071.36 2214.75L2067.25 2211.48L2063.23 2208.1L2059.32 2204.6L2055.5 2200.98L2051.79 2197.24L2048.19 2193.4L2044.69 2189.44L2041.32 2185.38L2038.05 2181.2L2034.91 2176.93L2031.88 2172.55L2028.98 2168.07L2026.21 2163.5L2023.57 2158.82L2021.06 2154.06L2018.69 2149.2L2016.46 2144.25L2014.37 2139.22L2011.93 2138.66L2009.51 2138.06L2007.1 2137.43L2004.7 2136.76L2002.32 2136.05L1999.95 2135.3L1997.6 2134.52L1995.27 2133.7L1992.95 2132.85L1990.65 2131.96L1988.37 2131.03L1986.1 2130.07L1983.85 2129.07L1981.62 2128.04L1979.41 2126.97L1977.21 2125.87L1975.04 2124.73L1972.88 2123.56L1970.75 2122.35L1968.63 2121.11L1966.54 2119.84L1964.46 2118.53L1962.41 2117.19L1960.37 2115.82L1958.36 2114.41L1956.37 2112.97L1954.41 2111.5L1952.46 2110L1950.54 2108.46L1948.64 2106.89L1946.76 2105.29L1944.91 2103.66L1943.09 2102L1941.28 2100.31L1939.51 2098.58L1937.75 2096.83L1936.03 2095.04L1934.32 2093.23L1932.65 2091.38L1931 2089.5L1929.06 2090.6L1927.11 2091.67L1925.15 2092.71L1923.18 2093.72L1921.19 2094.71L1919.19 2095.67L1917.19 2096.61L1915.17 2097.52L1913.14 2098.4L1911.1 2099.25L1909.06 2100.08L1907 2100.88L1904.93 2101.65L1902.85 2102.4L1900.77 2103.12L1898.67 2103.81L1896.57 2104.48L1894.46 2105.11L1892.34 2105.72L1890.21 2106.3L1888.07 2106.86L1885.93 2107.38L1883.78 2107.88L1881.62 2108.35L1879.46 2108.79L1877.28 2109.21L1875.1 2109.59L1872.92 2109.95L1870.73 2110.28L1868.53 2110.58L1866.33 2110.85L1864.12 2111.1L1861.91 2111.32L1859.69 2111.5L1857.47 2111.66L1855.24 2111.79L1853.01 2111.89L1850.78 2111.97L1848.54 2112.01L1846.3 2112.02L1840.93 2111.94L1835.6 2111.7L1830.31 2111.29L1825.06 2110.73L1819.86 2110.01L1814.7 2109.14L1809.59 2108.11L1804.53 2106.93L1799.53 2105.61L1794.59 2104.13L1789.7 2102.52L1784.88 2100.76L1780.13 2098.86L1775.44 2096.82L1770.82 2094.65L1766.28 2092.34L1761.82 2089.9L1757.43 2087.33L1753.13 2084.63L1748.91 2081.81L1744.78 2078.86L1740.73 2075.78L1736.79 2072.59L1732.93 2069.28L1729.18 2065.85L1725.53 2062.31L1721.98 2058.66L1718.54 2054.9L1715.2 2051.02L1711.98 2047.05L1708.88 2042.96L1705.89 2038.78L1703.02 2034.49L1700.28 2030.11L1697.66 2025.63L1695.17 2021.06L1692.81 2016.39L1690.58 2011.64L1688.49 2006.79L1686.55 2001.86L1680.83 2001.02L1675.18 1999.97L1669.61 1998.72L1664.12 1997.27L1658.71 1995.63L1653.39 1993.8L1648.16 1991.78L1643.02 1989.59L1637.98 1987.22L1633.05 1984.67L1628.21 1981.96L1623.49 1979.08L1618.88 1976.04L1614.39 1972.84L1610.02 1969.49L1605.78 1966L1601.66 1962.36L1597.68 1958.57L1593.83 1954.65L1590.12 1950.6L1586.55 1946.42L1583.14 1942.12L1579.87 1937.7L1576.76 1933.16L1573.81 1928.5L1571.02 1923.74L1568.4 1918.88L1565.95 1913.91L1563.67 1908.85L1561.57 1903.7L1559.66 1898.46L1557.92 1893.13L1556.38 1887.73L1555.03 1882.25L1553.88 1876.7L1552.93 1871.08L1552.18 1865.39L1551.65 1859.65L1551.32 1853.85L1551.21 1848L1551.27 1843.8L1551.43 1839.62L1551.71 1835.47L1552.09 1831.34L1552.58 1827.24L1553.18 1823.17L1553.88 1819.13L1554.68 1815.12L1555.59 1811.14L1556.6 1807.2L1557.71 1803.29L1558.92 1799.43L1560.23 1795.6L1561.64 1791.81L1563.14 1788.07L1564.74 1784.37L1566.44 1780.72L1568.22 1777.12L1570.11 1773.57L1572.08 1770.07L1574.14 1766.62L1576.29 1763.23L1578.54 1759.89L1580.87 1756.61L1583.28 1753.4L1585.78 1750.24L1588.37 1747.15L1591.04 1744.12L1593.79 1741.16L1596.62 1738.26L1599.54 1735.44L1602.53 1732.69L1605.6 1730.01L1608.75 1727.4L1611.97 1724.88L1615.27 1722.43L1618.65 1720.06L1622.09 1717.77L1625.61 1715.56L1629.2 1713.44L1629.74 1706.77L1630.52 1700.18L1631.56 1693.67L1632.84 1687.23L1634.36 1680.89L1636.11 1674.64L1638.1 1668.48L1640.31 1662.43L1642.74 1656.49L1645.38 1650.66L1648.23 1644.95L1651.29 1639.36L1654.55 1633.9L1658 1628.57L1661.64 1623.38L1665.47 1618.34L1669.47 1613.43L1673.65 1608.69L1678 1604.1L1682.52 1599.67L1687.19 1595.41L1692.02 1591.32L1697 1587.41L1702.13 1583.69L1707.39 1580.15L1712.79 1576.8L1718.31 1573.65L1723.97 1570.7L1729.74 1567.96L1735.62 1565.43L1741.62 1563.12L1747.72 1561.03L1753.92 1559.17L1760.22 1557.54L1766.6 1556.15L1773.07 1555L1779.62 1554.09L1786.25 1553.44L1792.94 1553.05L1799.7 1552.91L1802.57 1552.94L1805.43 1553.01L1808.29 1553.12L1811.13 1553.29L1813.96 1553.5L1816.79 1553.75L1819.6 1554.05L1822.41 1554.4L1825.2 1554.79L1827.98 1555.23L1830.75 1555.71L1833.51 1556.24L1836.25 1556.81L1838.98 1557.43L1841.7 1558.09L1844.4 1558.79L1847.09 1559.54L1849.77 1560.34L1852.43 1561.17L1855.07 1562.05L1857.7 1562.98L1860.31 1563.94L1862.9 1564.95L1865.48 1566.01L1868.04 1567.1L1870.58 1568.24L1873.1 1569.42L1875.6 1570.64L1878.09 1571.91L1880.55 1573.21L1882.99 1574.56L1885.42 1575.95L1887.82 1577.38L1890.2 1578.85L1892.56 1580.36L1894.89 1581.91L1897.21 1583.5L1899.5 1585.14L1901.76 1586.81L1904.01 1588.52L1905.81 1584.22L1907.74 1579.98L1909.79 1575.81L1911.97 1571.72L1914.25 1567.71L1916.66 1563.77L1919.17 1559.91L1921.79 1556.13L1924.52 1552.44L1927.36 1548.83L1930.29 1545.32L1933.33 1541.89L1936.46 1538.55L1939.68 1535.31L1943 1532.16L1946.41 1529.12L1949.9 1526.17L1953.47 1523.33L1957.13 1520.59L1960.87 1517.95L1964.68 1515.43L1968.56 1513.01L1972.52 1510.71L1976.54 1508.52L1980.63 1506.45L1984.79 1504.5L1989 1502.67L1993.28 1500.96L1997.61 1499.38L2001.99 1497.92L2006.42 1496.59L2010.91 1495.4L2015.43 1494.33L2020.01 1493.41L2024.62 1492.62L2029.27 1491.96L2033.95 1491.45L2038.67 1491.09L2043.42 1490.86L2048.2 1490.79L2051.98 1490.84L2055.75 1490.97ZM2039.55 1522.16L2035.28 1522.53L2031.04 1523.06L2026.83 1523.73L2022.67 1524.54L2018.55 1525.49L2014.48 1526.58L2010.46 1527.8L2006.49 1529.16L2002.58 1530.65L1998.73 1532.26L1994.94 1534L1991.21 1535.86L1987.56 1537.85L1983.97 1539.95L1980.45 1542.16L1977.02 1544.49L1973.66 1546.94L1970.39 1549.49L1967.2 1552.14L1964.1 1554.9L1961.09 1557.76L1958.17 1560.72L1955.36 1563.78L1952.64 1566.93L1950.03 1570.18L1947.53 1573.51L1945.13 1576.93L1942.85 1580.43L1940.68 1584.02L1938.63 1587.69L1936.7 1591.43L1934.9 1595.25L1933.22 1599.14L1931.67 1603.1L1930.26 1607.13L1928.99 1611.23L1927.85 1615.38L1926.85 1619.6L1926.76 1620.02L1926.65 1620.43L1926.53 1620.84L1926.4 1621.25L1926.26 1621.65L1926.11 1622.04L1925.95 1622.43L1925.77 1622.82L1925.59 1623.19L1925.4 1623.57L1925.2 1623.93L1924.99 1624.29L1924.77 1624.65L1924.54 1625L1924.3 1625.34L1924.06 1625.67L1923.8 1626L1923.54 1626.32L1923.27 1626.63L1922.99 1626.94L1922.7 1627.24L1922.4 1627.53L1922.1 1627.81L1921.79 1628.09L1921.47 1628.35L1921.14 1628.61L1920.81 1628.86L1920.47 1629.1L1920.12 1629.33L1919.77 1629.56L1919.41 1629.77L1919.04 1629.97L1918.67 1630.17L1918.29 1630.35L1917.91 1630.53L1917.52 1630.69L1917.12 1630.85L1916.72 1630.99L1916.32 1631.13L1915.91 1631.25L1915.49 1631.36L1915.08 1631.46L1914.66 1631.55L1914.24 1631.62L1913.82 1631.68L1913.4 1631.74L1912.98 1631.78L1912.56 1631.81L1912.14 1631.82L1911.73 1631.83L1911.31 1631.83L1910.89 1631.81L1910.47 1631.78L1910.06 1631.74L1909.65 1631.69L1909.23 1631.63L1908.83 1631.56L1908.42 1631.48L1908.01 1631.39L1907.61 1631.28L1907.21 1631.17L1906.82 1631.05L1906.42 1630.91L1906.03 1630.76L1905.65 1630.61L1905.27 1630.44L1904.89 1630.26L1904.52 1630.08L1904.15 1629.88L1903.79 1629.67L1903.43 1629.46L1903.08 1629.23L1902.73 1628.99L1902.39 1628.74L1902.06 1628.49L1901.73 1628.22L1901.41 1627.94L1901.09 1627.66L1900.78 1627.36L1900.48 1627.06L1898.46 1625L1896.41 1622.98L1894.33 1621.02L1892.21 1619.1L1890.06 1617.23L1887.88 1615.41L1885.67 1613.63L1883.43 1611.91L1881.17 1610.23L1878.87 1608.6L1876.54 1607.03L1874.19 1605.5L1871.81 1604.02L1869.4 1602.59L1866.97 1601.22L1864.52 1599.89L1862.04 1598.61L1859.53 1597.39L1857.01 1596.22L1854.46 1595.1L1851.88 1594.03L1849.29 1593.01L1846.68 1592.05L1844.05 1591.14L1841.39 1590.28L1838.72 1589.48L1836.03 1588.73L1833.33 1588.03L1830.6 1587.39L1827.86 1586.8L1825.11 1586.27L1822.34 1585.79L1819.55 1585.37L1816.75 1585L1813.94 1584.69L1811.12 1584.43L1808.28 1584.23L1805.43 1584.09L1802.57 1584L1799.7 1583.97L1793.98 1584.09L1788.32 1584.44L1782.72 1585.01L1777.18 1585.8L1771.71 1586.8L1766.32 1588.02L1761.01 1589.45L1755.78 1591.07L1750.65 1592.9L1745.6 1594.92L1740.65 1597.12L1735.8 1599.51L1731.07 1602.08L1726.44 1604.83L1721.92 1607.75L1717.53 1610.83L1713.26 1614.08L1709.12 1617.48L1705.12 1621.03L1701.25 1624.74L1697.53 1628.58L1693.95 1632.57L1690.53 1636.69L1687.26 1640.94L1684.16 1645.32L1681.22 1649.81L1678.45 1654.43L1675.85 1659.16L1673.43 1663.99L1671.2 1668.93L1669.16 1673.97L1667.3 1679.1L1665.65 1684.32L1664.2 1689.62L1662.95 1695.01L1661.91 1700.47L1661.09 1706L1660.49 1711.61L1660.12 1717.27L1659.97 1722.99L1659.96 1723.43L1659.94 1723.87L1659.91 1724.3L1659.87 1724.73L1659.81 1725.16L1659.74 1725.58L1659.66 1726.01L1659.57 1726.43L1659.47 1726.84L1659.35 1727.25L1659.23 1727.66L1659.09 1728.07L1658.94 1728.47L1658.78 1728.86L1658.62 1729.25L1658.44 1729.63L1658.25 1730.01L1658.05 1730.39L1657.84 1730.76L1657.62 1731.12L1657.39 1731.48L1657.15 1731.83L1656.9 1732.17L1656.65 1732.51L1656.38 1732.84L1656.1 1733.16L1655.82 1733.48L1655.52 1733.78L1655.22 1734.08L1654.91 1734.38L1654.59 1734.66L1654.26 1734.94L1653.93 1735.2L1653.58 1735.46L1653.23 1735.71L1652.87 1735.95L1652.5 1736.18L1652.13 1736.4L1651.74 1736.61L1651.35 1736.81L1648.19 1738.44L1645.08 1740.15L1642.04 1741.93L1639.06 1743.8L1636.15 1745.73L1633.3 1747.74L1630.52 1749.81L1627.8 1751.96L1625.16 1754.18L1622.58 1756.46L1620.07 1758.8L1617.64 1761.21L1615.28 1763.68L1612.98 1766.22L1610.77 1768.8L1608.63 1771.45L1606.56 1774.15L1604.57 1776.91L1602.66 1779.72L1600.83 1782.58L1599.08 1785.48L1597.41 1788.44L1595.82 1791.44L1594.32 1794.49L1592.89 1797.57L1591.56 1800.7L1590.31 1803.87L1589.14 1807.08L1588.06 1810.33L1587.07 1813.61L1586.17 1816.92L1585.37 1820.27L1584.65 1823.64L1584.02 1827.05L1583.49 1830.48L1583.06 1833.94L1582.72 1837.42L1582.47 1840.93L1582.32 1844.45L1582.27 1848L1582.37 1852.89L1582.65 1857.73L1583.12 1862.53L1583.77 1867.27L1584.6 1871.96L1585.61 1876.58L1586.78 1881.15L1588.12 1885.64L1589.63 1890.06L1591.3 1894.41L1593.13 1898.68L1595.11 1902.87L1597.24 1906.98L1599.51 1910.99L1601.93 1914.91L1604.49 1918.73L1607.19 1922.46L1610.02 1926.07L1612.98 1929.58L1616.07 1932.98L1619.27 1936.27L1622.6 1939.43L1626.04 1942.47L1629.6 1945.39L1633.26 1948.17L1637.03 1950.83L1640.9 1953.34L1644.87 1955.71L1648.94 1957.94L1653.09 1960.02L1657.34 1961.95L1661.66 1963.72L1666.07 1965.33L1670.56 1966.78L1675.12 1968.06L1679.75 1969.18L1684.45 1970.11L1689.21 1970.87L1694.03 1971.45L1698.91 1971.84L1699.39 1971.88L1699.87 1971.93L1700.34 1972L1700.81 1972.08L1701.28 1972.17L1701.74 1972.28L1702.19 1972.4L1702.64 1972.53L1703.09 1972.68L1703.53 1972.84L1703.96 1973.01L1704.39 1973.2L1704.81 1973.4L1705.22 1973.61L1705.63 1973.83L1706.03 1974.07L1706.42 1974.31L1706.81 1974.57L1707.18 1974.84L1707.55 1975.12L1707.91 1975.41L1708.26 1975.71L1708.6 1976.02L1708.94 1976.35L1709.26 1976.68L1709.57 1977.02L1709.88 1977.37L1710.17 1977.73L1710.45 1978.1L1710.72 1978.48L1710.98 1978.87L1711.23 1979.27L1711.47 1979.67L1711.7 1980.09L1711.91 1980.51L1712.11 1980.94L1712.3 1981.37L1712.48 1981.82L1712.64 1982.27L1712.79 1982.73L1714.23 1987.1L1715.79 1991.4L1717.49 1995.61L1719.31 1999.76L1721.25 2003.82L1723.31 2007.8L1725.49 2011.7L1727.78 2015.51L1730.18 2019.23L1732.7 2022.86L1735.32 2026.41L1738.05 2029.86L1740.87 2033.21L1743.8 2036.47L1746.82 2039.63L1749.94 2042.69L1753.15 2045.64L1756.45 2048.5L1759.83 2051.24L1763.3 2053.88L1766.85 2056.4L1770.48 2058.82L1774.18 2061.12L1777.96 2063.3L1781.81 2065.37L1785.73 2067.32L1789.71 2069.14L1793.75 2070.85L1797.86 2072.42L1802.02 2073.87L1806.24 2075.2L1810.52 2076.39L1814.84 2077.44L1819.21 2078.36L1823.63 2079.15L1828.09 2079.8L1832.59 2080.3L1837.12 2080.67L1841.69 2080.89L1846.3 2080.96L1848.43 2080.94L1850.56 2080.9L1852.69 2080.82L1854.81 2080.7L1856.92 2080.56L1859.03 2080.39L1861.14 2080.18L1863.24 2079.94L1865.33 2079.67L1867.42 2079.37L1869.5 2079.03L1871.57 2078.67L1873.64 2078.28L1875.7 2077.85L1877.75 2077.39L1879.79 2076.9L1881.83 2076.38L1883.85 2075.84L1885.87 2075.25L1887.88 2074.64L1889.88 2074L1891.87 2073.33L1893.85 2072.63L1895.82 2071.9L1897.77 2071.13L1899.72 2070.34L1901.66 2069.52L1903.58 2068.67L1905.5 2067.79L1907.4 2066.87L1909.29 2065.93L1911.16 2064.96L1913.03 2063.96L1914.88 2062.93L1916.71 2061.87L1918.54 2060.78L1920.35 2059.67L1922.14 2058.52L1923.93 2057.35L1925.69 2056.14L1925.9 2056L1926.1 2055.87L1926.31 2055.74L1926.51 2055.61L1926.72 2055.49L1926.93 2055.37L1927.14 2055.25L1927.35 2055.14L1927.57 2055.03L1927.78 2054.93L1928 2054.82L1928.21 2054.73L1928.43 2054.63L1928.65 2054.54L1928.87 2054.45L1929.09 2054.37L1929.31 2054.29L1929.53 2054.21L1929.75 2054.14L1929.97 2054.07L1930.2 2054L1930.42 2053.94L1930.65 2053.88L1930.87 2053.82L1931.1 2053.77L1931.32 2053.72L1931.55 2053.68L1931.78 2053.63L1932 2053.6L1932.23 2053.56L1932.46 2053.53L1932.69 2053.5L1932.91 2053.48L1933.14 2053.45L1933.37 2053.43L1933.6 2053.42L1933.83 2053.41L1934.06 2053.4L1934.28 2053.39L1934.51 2053.39L1934.88 2053.4L1935.24 2053.41L1935.6 2053.43L1935.96 2053.46L1936.32 2053.5L1936.68 2053.55L1937.04 2053.6L1937.4 2053.66L1937.75 2053.73L1938.11 2053.81L1938.46 2053.9L1938.81 2054L1939.16 2054.1L1939.5 2054.21L1939.84 2054.33L1940.18 2054.46L1940.52 2054.6L1940.86 2054.74L1941.19 2054.89L1941.52 2055.06L1941.84 2055.22L1942.16 2055.4L1942.48 2055.58L1942.79 2055.78L1943.1 2055.97L1943.41 2056.18L1943.71 2056.4L1944 2056.62L1944.3 2056.85L1944.58 2057.09L1944.87 2057.33L1945.14 2057.59L1945.41 2057.85L1945.68 2058.12L1945.94 2058.39L1946.2 2058.68L1946.45 2058.97L1946.69 2059.27L1946.92 2059.57L1947.16 2059.89L1948.63 2061.91L1950.14 2063.89L1951.69 2065.85L1953.27 2067.76L1954.88 2069.64L1956.53 2071.48L1958.2 2073.29L1959.91 2075.06L1961.65 2076.79L1963.42 2078.49L1965.22 2080.14L1967.06 2081.76L1968.92 2083.34L1970.8 2084.88L1972.72 2086.39L1974.67 2087.85L1976.64 2089.27L1978.64 2090.65L1980.66 2092L1982.71 2093.3L1984.79 2094.56L1986.89 2095.78L1989.01 2096.95L1991.16 2098.09L1993.33 2099.18L1995.53 2100.23L1997.74 2101.24L1999.98 2102.2L2002.24 2103.12L2004.52 2104L2006.82 2104.83L2009.14 2105.62L2011.48 2106.36L2013.84 2107.06L2016.22 2107.71L2018.62 2108.32L2021.03 2108.88L2023.46 2109.39L2025.9 2109.86L2028.37 2110.28L2028.79 2110.36L2029.21 2110.44L2029.63 2110.54L2030.04 2110.65L2030.45 2110.77L2030.85 2110.9L2031.25 2111.04L2031.64 2111.19L2032.03 2111.35L2032.42 2111.52L2032.79 2111.7L2033.17 2111.89L2033.53 2112.09L2033.89 2112.3L2034.25 2112.52L2034.6 2112.75L2034.94 2112.99L2035.27 2113.23L2035.6 2113.49L2035.92 2113.75L2036.24 2114.03L2036.54 2114.31L2036.84 2114.6L2037.14 2114.89L2037.42 2115.2L2037.69 2115.51L2037.96 2115.83L2038.22 2116.16L2038.47 2116.5L2038.71 2116.84L2038.94 2117.19L2039.17 2117.55L2039.38 2117.91L2039.59 2118.28L2039.78 2118.65L2039.97 2119.04L2040.14 2119.43L2040.31 2119.82L2040.46 2120.22L2040.6 2120.63L2042.2 2125.08L2043.92 2129.46L2045.77 2133.76L2047.75 2137.98L2049.85 2142.12L2052.08 2146.17L2054.42 2150.14L2056.87 2154.03L2059.44 2157.82L2062.12 2161.53L2064.9 2165.14L2067.79 2168.65L2070.79 2172.07L2073.88 2175.39L2077.06 2178.61L2080.34 2181.73L2083.72 2184.74L2087.18 2187.65L2090.72 2190.45L2094.35 2193.13L2098.06 2195.71L2101.85 2198.17L2105.71 2200.52L2109.64 2202.74L2113.64 2204.85L2117.72 2206.83L2121.85 2208.69L2126.05 2210.43L2130.3 2212.04L2134.61 2213.52L2138.97 2214.86L2143.39 2216.07L2147.85 2217.15L2152.36 2218.09L2156.91 2218.89L2161.5 2219.55L2166.13 2220.07L2170.79 2220.44L2175.49 2220.66L2180.21 2220.74L2184.07 2220.69L2187.91 2220.54L2191.73 2220.3L2195.53 2219.96L2199.31 2219.52L2203.06 2218.99L2206.79 2218.36L2210.48 2217.64L2214.15 2216.83L2217.8 2215.92L2221.4 2214.93L2224.98 2213.85L2228.52 2212.67L2232.03 2211.41L2235.5 2210.06L2238.92 2208.62L2242.31 2207.1L2245.66 2205.49L2248.97 2203.8L2252.23 2202.02L2255.44 2200.16L2258.61 2198.22L2261.73 2196.2L2264.8 2194.09L2267.81 2191.91L2270.78 2189.65L2273.69 2187.31L2276.54 2184.89L2279.34 2182.4L2282.07 2179.83L2284.75 2177.18L2287.37 2174.46L2289.92 2171.67L2292.41 2168.81L2294.83 2165.87L2297.18 2162.87L2299.47 2159.79L2301.69 2156.65L2303.83 2153.43L2305.9 2150.15L2306.11 2149.83L2306.32 2149.51L2306.54 2149.19L2306.76 2148.89L2307 2148.59L2307.24 2148.29L2307.48 2148.01L2307.74 2147.73L2308 2147.45L2308.26 2147.18L2308.53 2146.92L2308.81 2146.67L2309.09 2146.43L2309.38 2146.19L2309.68 2145.96L2309.97 2145.73L2310.28 2145.52L2310.59 2145.31L2310.9 2145.1L2311.22 2144.91L2311.54 2144.72L2311.87 2144.55L2312.2 2144.38L2312.54 2144.21L2312.88 2144.06L2313.23 2143.91L2313.57 2143.77L2313.92 2143.64L2314.28 2143.52L2314.64 2143.41L2315 2143.3L2315.36 2143.21L2315.73 2143.12L2316.1 2143.04L2316.47 2142.97L2316.85 2142.91L2317.23 2142.86L2317.61 2142.82L2317.99 2142.78L2318.37 2142.76L2323.31 2142.42L2328.19 2141.89L2333.01 2141.18L2337.77 2140.29L2342.46 2139.22L2347.08 2137.98L2351.62 2136.56L2356.08 2134.98L2360.46 2133.24L2364.76 2131.34L2368.97 2129.29L2373.08 2127.08L2377.1 2124.72L2381.02 2122.23L2384.84 2119.59L2388.55 2116.81L2392.15 2113.9L2395.64 2110.87L2399 2107.7L2402.25 2104.42L2405.38 2101.02L2408.37 2097.5L2411.24 2093.87L2413.97 2090.14L2416.56 2086.3L2419.01 2082.36L2421.32 2078.33L2423.48 2074.2L2425.48 2069.99L2427.33 2065.69L2429.02 2061.31L2430.54 2056.85L2431.9 2052.32L2433.09 2047.71L2434.11 2043.05L2434.95 2038.31L2435.61 2033.52L2436.09 2028.68L2436.37 2023.78L2436.47 2018.83L2436.45 2016.54L2436.38 2014.25L2436.28 2011.96L2436.13 2009.68L2435.94 2007.4L2435.71 2005.14L2435.43 2002.87L2435.12 2000.62L2434.76 1998.38L2434.37 1996.14L2433.93 1993.92L2433.45 1991.7L2432.93 1989.49L2432.37 1987.3L2431.77 1985.12L2431.13 1982.95L2430.46 1980.79L2429.74 1978.64L2428.98 1976.51L2428.19 1974.39L2427.35 1972.29L2426.48 1970.2L2425.57 1968.12L2424.62 1966.07L2423.63 1964.03L2422.61 1962L2421.54 1960L2420.44 1958.01L2419.31 1956.04L2418.13 1954.09L2416.92 1952.16L2415.67 1950.25L2414.39 1948.36L2413.07 1946.49L2411.71 1944.64L2410.32 1942.81L2408.89 1941.01L2407.43 1939.23L2405.93 1937.48L2404.4 1935.75L2404.19 1935.51L2403.98 1935.26L2403.78 1935.02L2403.59 1934.77L2403.4 1934.51L2403.21 1934.26L2403.03 1934L2402.86 1933.73L2402.69 1933.47L2402.53 1933.2L2402.37 1932.92L2402.22 1932.65L2402.08 1932.37L2401.94 1932.09L2401.8 1931.81L2401.68 1931.52L2401.56 1931.23L2401.44 1930.94L2401.33 1930.65L2401.23 1930.35L2401.13 1930.06L2401.04 1929.76L2400.95 1929.46L2400.87 1929.15L2400.8 1928.85L2400.73 1928.54L2400.67 1928.24L2400.61 1927.93L2400.56 1927.62L2400.52 1927.31L2400.48 1926.99L2400.45 1926.68L2400.43 1926.37L2400.41 1926.05L2400.4 1925.74L2400.39 1925.42L2400.4 1925.1L2400.4 1924.78L2400.42 1924.46L2400.44 1924.14L2400.47 1923.83L2400.5 1923.51L2400.54 1923.2L2400.59 1922.88L2400.64 1922.57L2400.7 1922.26L2400.77 1921.95L2400.84 1921.65L2400.92 1921.34L2401 1921.04L2401.09 1920.74L2401.19 1920.44L2401.29 1920.14L2401.39 1919.85L2401.51 1919.55L2401.63 1919.27L2401.75 1918.98L2401.88 1918.69L2402.02 1918.41L2402.16 1918.13L2402.31 1917.86L2402.46 1917.59L2402.62 1917.32L2402.79 1917.05L2402.96 1916.79L2403.13 1916.53L2403.31 1916.27L2403.5 1916.02L2403.69 1915.77L2403.88 1915.52L2404.09 1915.28L2404.29 1915.04L2404.5 1914.81L2404.72 1914.58L2404.94 1914.35L2405.17 1914.13L2405.4 1913.91L2405.64 1913.7L2405.88 1913.49L2406.12 1913.29L2408.29 1911.49L2410.4 1909.64L2412.47 1907.76L2414.49 1905.84L2416.46 1903.87L2418.39 1901.87L2420.26 1899.83L2422.09 1897.76L2423.86 1895.64L2425.59 1893.5L2427.26 1891.31L2428.89 1889.1L2430.46 1886.85L2431.98 1884.57L2433.45 1882.26L2434.87 1879.92L2436.23 1877.55L2437.54 1875.15L2438.79 1872.73L2439.99 1870.28L2441.14 1867.8L2442.23 1865.3L2443.27 1862.77L2444.25 1860.22L2445.17 1857.65L2446.04 1855.05L2446.85 1852.44L2447.6 1849.8L2448.29 1847.15L2448.93 1844.48L2449.51 1841.79L2450.03 1839.08L2450.49 1836.36L2450.89 1833.62L2451.22 1830.87L2451.5 1828.11L2451.72 1825.33L2451.88 1822.54L2451.97 1819.74L2452 1816.94L2451.91 1812.16L2451.63 1807.43L2451.17 1802.74L2450.54 1798.09L2449.73 1793.5L2448.76 1788.96L2447.61 1784.48L2446.31 1780.06L2444.84 1775.71L2443.22 1771.42L2441.44 1767.21L2439.52 1763.08L2437.44 1759.02L2435.23 1755.05L2432.88 1751.16L2430.38 1747.37L2427.76 1743.67L2425.01 1740.07L2422.13 1736.57L2419.13 1733.18L2416.01 1729.9L2412.77 1726.73L2409.42 1723.68L2405.96 1720.75L2402.4 1717.94L2398.73 1715.26L2394.96 1712.71L2391.1 1710.3L2387.15 1708.03L2383.1 1705.9L2378.98 1703.91L2374.77 1702.08L2370.48 1700.4L2366.11 1698.87L2361.68 1697.51L2357.17 1696.32L2352.6 1695.29L2347.97 1694.43L2343.28 1693.75L2338.53 1693.25L2338.03 1693.2L2337.53 1693.13L2337.03 1693.05L2336.54 1692.95L2336.06 1692.84L2335.58 1692.71L2335.11 1692.56L2334.64 1692.41L2334.18 1692.23L2333.73 1692.05L2333.28 1691.85L2332.84 1691.63L2332.41 1691.41L2331.99 1691.17L2331.57 1690.91L2331.17 1690.65L2330.77 1690.37L2330.38 1690.08L2330 1689.78L2329.63 1689.47L2329.27 1689.14L2328.93 1688.81L2328.59 1688.46L2328.26 1688.1L2327.94 1687.73L2327.64 1687.36L2327.34 1686.97L2327.06 1686.57L2326.79 1686.17L2326.53 1685.75L2326.29 1685.33L2326.06 1684.89L2325.84 1684.45L2325.63 1684L2325.44 1683.55L2325.27 1683.08L2325.11 1682.61L2324.96 1682.13L2324.83 1681.64L2324.71 1681.15L2323.5 1676.2L2322.09 1671.33L2320.5 1666.55L2318.71 1661.87L2316.75 1657.28L2314.61 1652.79L2312.3 1648.41L2309.82 1644.13L2307.18 1639.97L2304.38 1635.92L2301.43 1632L2298.33 1628.2L2295.09 1624.52L2291.71 1620.98L2288.2 1617.58L2284.56 1614.31L2280.8 1611.19L2276.92 1608.22L2272.92 1605.4L2268.82 1602.73L2264.61 1600.23L2260.31 1597.89L2255.91 1595.72L2251.42 1593.72L2246.84 1591.89L2242.19 1590.25L2237.46 1588.79L2232.66 1587.51L2227.8 1586.43L2222.88 1585.55L2217.9 1584.86L2212.87 1584.38L2207.8 1584.1L2202.68 1584.04L2197.53 1584.19L2192.35 1584.56L2187.14 1585.16L2181.91 1585.98L2176.66 1587.03L2171.4 1588.32L2170.9 1588.45L2170.41 1588.55L2169.91 1588.65L2169.41 1588.72L2168.9 1588.78L2168.4 1588.82L2167.9 1588.84L2167.41 1588.85L2166.91 1588.84L2166.41 1588.82L2165.92 1588.78L2165.43 1588.73L2164.94 1588.66L2164.46 1588.57L2163.97 1588.47L2163.5 1588.36L2163.02 1588.23L2162.56 1588.08L2162.09 1587.92L2161.63 1587.75L2161.18 1587.56L2160.73 1587.35L2160.29 1587.14L2159.86 1586.91L2159.43 1586.66L2159.02 1586.4L2158.61 1586.13L2158.2 1585.85L2157.81 1585.55L2157.42 1585.24L2157.05 1584.91L2156.68 1584.57L2156.33 1584.22L2155.98 1583.86L2155.65 1583.49L2155.32 1583.1L2155.01 1582.7L2154.71 1582.29L2154.42 1581.86L2154.15 1581.43L2152.4 1578.66L2150.59 1575.94L2148.73 1573.29L2146.8 1570.69L2144.82 1568.16L2142.77 1565.68L2140.68 1563.26L2138.53 1560.91L2136.32 1558.61L2134.07 1556.38L2131.76 1554.21L2129.4 1552.11L2127 1550.07L2124.55 1548.09L2122.05 1546.18L2119.51 1544.34L2116.92 1542.57L2114.29 1540.86L2111.62 1539.22L2108.91 1537.65L2106.16 1536.15L2103.38 1534.72L2100.56 1533.36L2097.7 1532.08L2094.81 1530.86L2091.89 1529.72L2088.93 1528.66L2085.95 1527.67L2082.93 1526.75L2079.89 1525.91L2076.82 1525.15L2073.73 1524.47L2070.61 1523.86L2067.47 1523.33L2064.3 1522.88L2061.12 1522.51L2057.91 1522.22L2054.69 1522.02L2051.45 1521.89L2048.2 1521.85L2043.86 1521.93L2039.55 1522.16Z" id="hP4p0ZHw2"></path><path d="M1628.87 2267.33C1628.87 2270.44 1628.87 2295.29 1628.87 2298.39C1628.87 2306.97 1635.82 2313.92 1644.4 2313.92C1652.97 2313.92 1659.93 2306.97 1659.93 2298.39C1659.93 2295.29 1659.93 2270.44 1659.93 2267.33C1659.93 2258.76 1652.97 2251.8 1644.4 2251.8C1635.82 2251.8 1628.87 2258.76 1628.87 2267.33Z" id="d5SJ0nHcJ2"></path><path d="M1566.74 2205.21C1558.17 2205.21 1551.21 2212.17 1551.21 2220.74C1551.21 2229.31 1558.17 2236.27 1566.74 2236.27C1569.85 2236.27 1594.7 2236.27 1597.8 2236.27C1606.38 2236.27 1613.33 2229.31 1613.33 2220.74C1613.33 2212.17 1606.38 2205.21 1597.8 2205.21C1591.59 2205.21 1569.85 2205.21 1566.74 2205.21Z" id="av20Q2YeA"></path><path d="M2391.15 1382.13L2391.78 1382.19L2392.39 1382.28L2393 1382.39L2393.61 1382.53L2394.2 1382.69L2394.78 1382.87L2395.36 1383.07L2395.92 1383.3L2396.47 1383.54L2397.01 1383.81L2397.54 1384.1L2398.05 1384.4L2398.56 1384.73L2399.05 1385.07L2399.52 1385.44L2399.98 1385.82L2400.43 1386.21L2400.86 1386.63L2401.27 1387.06L2401.67 1387.5L2402.05 1387.96L2402.41 1388.44L2402.75 1388.93L2403.08 1389.43L2403.38 1389.94L2403.67 1390.47L2403.94 1391.01L2404.18 1391.56L2404.41 1392.13L2404.61 1392.7L2404.8 1393.28L2404.95 1393.88L2405.09 1394.48L2405.2 1395.09L2405.29 1395.71L2405.35 1396.33L2405.39 1396.97L2405.41 1397.61L2405.46 1400.16L2405.61 1402.7L2405.87 1405.2L2406.22 1407.67L2406.67 1410.11L2407.21 1412.52L2407.85 1414.89L2408.58 1417.22L2409.39 1419.52L2410.29 1421.77L2411.28 1423.97L2412.35 1426.13L2413.5 1428.25L2414.72 1430.31L2416.03 1432.32L2417.41 1434.27L2418.86 1436.17L2420.38 1438.02L2421.96 1439.8L2423.62 1441.52L2425.34 1443.17L2427.12 1444.76L2428.96 1446.28L2430.86 1447.73L2432.82 1449.11L2434.83 1450.41L2436.89 1451.64L2439 1452.79L2441.16 1453.85L2443.37 1454.84L2445.62 1455.74L2447.91 1456.56L2450.24 1457.28L2452.62 1457.92L2455.02 1458.47L2457.46 1458.92L2459.94 1459.27L2462.44 1459.52L2464.97 1459.68L2467.53 1459.73L2468.17 1459.74L2468.8 1459.78L2469.43 1459.84L2470.05 1459.93L2470.66 1460.05L2471.26 1460.18L2471.85 1460.34L2472.44 1460.52L2473.01 1460.73L2473.57 1460.95L2474.12 1461.2L2474.66 1461.46L2475.19 1461.75L2475.71 1462.06L2476.21 1462.38L2476.7 1462.73L2477.17 1463.09L2477.63 1463.47L2478.08 1463.87L2478.51 1464.28L2478.92 1464.71L2479.32 1465.16L2479.7 1465.62L2480.06 1466.09L2480.41 1466.58L2480.73 1467.08L2481.04 1467.6L2481.32 1468.13L2481.59 1468.67L2481.84 1469.22L2482.06 1469.78L2482.27 1470.35L2482.45 1470.94L2482.61 1471.53L2482.74 1472.13L2482.86 1472.74L2482.94 1473.36L2483.01 1473.99L2483.05 1474.62L2483.06 1475.26L2483.05 1475.9L2483.01 1476.53L2482.94 1477.16L2482.86 1477.78L2482.74 1478.39L2482.61 1478.99L2482.45 1479.58L2482.27 1480.17L2482.06 1480.74L2481.84 1481.3L2481.59 1481.85L2481.32 1482.39L2481.04 1482.92L2480.73 1483.44L2480.41 1483.94L2480.06 1484.43L2479.7 1484.9L2479.32 1485.36L2478.92 1485.81L2478.51 1486.24L2478.08 1486.65L2477.63 1487.05L2477.17 1487.43L2476.7 1487.79L2476.21 1488.14L2475.71 1488.46L2475.19 1488.77L2474.66 1489.06L2474.12 1489.32L2473.57 1489.57L2473.01 1489.79L2472.44 1490L2471.85 1490.18L2471.26 1490.34L2470.66 1490.47L2470.05 1490.59L2469.43 1490.67L2468.8 1490.74L2468.17 1490.78L2467.53 1490.79L2464.97 1490.84L2462.44 1491L2459.94 1491.25L2457.46 1491.6L2455.02 1492.05L2452.62 1492.6L2450.24 1493.23L2447.91 1493.96L2445.62 1494.78L2443.37 1495.68L2441.16 1496.66L2439 1497.73L2436.89 1498.88L2434.83 1500.11L2432.82 1501.41L2430.86 1502.79L2428.96 1504.24L2427.12 1505.76L2425.34 1507.35L2423.62 1509L2421.96 1510.72L2420.38 1512.5L2418.86 1514.34L2417.41 1516.24L2416.03 1518.2L2414.73 1520.21L2413.5 1522.27L2412.35 1524.38L2411.28 1526.55L2410.29 1528.75L2409.39 1531L2408.58 1533.3L2407.85 1535.63L2407.21 1538L2406.67 1540.41L2406.22 1542.85L2405.87 1545.32L2405.61 1547.82L2405.46 1550.36L2405.41 1552.91L2405.39 1553.55L2405.35 1554.19L2405.29 1554.81L2405.2 1555.43L2405.09 1556.04L2404.95 1556.64L2404.8 1557.24L2404.61 1557.82L2404.41 1558.39L2404.18 1558.96L2403.94 1559.51L2403.67 1560.05L2403.38 1560.58L2403.08 1561.09L2402.75 1561.59L2402.41 1562.08L2402.05 1562.56L2401.67 1563.02L2401.27 1563.46L2400.86 1563.89L2400.43 1564.31L2399.98 1564.7L2399.52 1565.08L2399.05 1565.45L2398.56 1565.79L2398.05 1566.11L2397.54 1566.42L2397.01 1566.71L2396.47 1566.98L2395.92 1567.22L2395.36 1567.45L2394.78 1567.65L2394.2 1567.83L2393.61 1567.99L2393 1568.13L2392.39 1568.24L2391.78 1568.33L2391.15 1568.39L2390.52 1568.43L2389.88 1568.44L2389.24 1568.43L2388.6 1568.39L2387.98 1568.33L2387.36 1568.24L2386.75 1568.13L2386.15 1567.99L2385.55 1567.83L2384.97 1567.65L2384.4 1567.45L2383.83 1567.22L2383.28 1566.98L2382.74 1566.71L2382.21 1566.42L2381.7 1566.11L2381.19 1565.79L2380.71 1565.45L2380.23 1565.08L2379.77 1564.7L2379.33 1564.31L2378.9 1563.89L2378.48 1563.46L2378.09 1563.02L2377.71 1562.56L2377.34 1562.08L2377 1561.59L2376.67 1561.09L2376.37 1560.58L2376.08 1560.05L2375.81 1559.51L2375.57 1558.96L2375.34 1558.39L2375.14 1557.82L2374.96 1557.24L2374.8 1556.64L2374.66 1556.04L2374.55 1555.43L2374.46 1554.81L2374.4 1554.19L2374.36 1553.55L2374.35 1552.91L2374.29 1550.36L2374.14 1547.82L2373.88 1545.32L2373.53 1542.85L2373.08 1540.41L2372.54 1538L2371.9 1535.63L2371.17 1533.3L2370.36 1531L2369.46 1528.75L2368.47 1526.55L2367.4 1524.39L2366.25 1522.27L2365.03 1520.21L2363.72 1518.2L2362.35 1516.25L2360.9 1514.35L2359.38 1512.5L2357.79 1510.72L2356.13 1509L2354.41 1507.35L2352.63 1505.76L2350.79 1504.24L2348.89 1502.79L2346.94 1501.41L2344.93 1500.11L2342.86 1498.88L2340.75 1497.73L2338.59 1496.67L2336.38 1495.68L2334.13 1494.78L2331.84 1493.96L2329.51 1493.23L2327.14 1492.6L2324.73 1492.05L2322.29 1491.6L2319.81 1491.25L2317.31 1491L2314.78 1490.84L2312.22 1490.79L2311.58 1490.78L2310.95 1490.74L2310.32 1490.67L2309.71 1490.59L2309.09 1490.47L2308.49 1490.34L2307.9 1490.18L2307.32 1490L2306.74 1489.79L2306.18 1489.57L2305.63 1489.32L2305.09 1489.06L2304.56 1488.77L2304.04 1488.46L2303.54 1488.14L2303.05 1487.79L2302.58 1487.43L2302.12 1487.05L2301.67 1486.65L2301.24 1486.24L2300.83 1485.81L2300.43 1485.36L2300.05 1484.9L2299.69 1484.43L2299.35 1483.94L2299.02 1483.44L2298.71 1482.92L2298.43 1482.39L2298.16 1481.85L2297.91 1481.3L2297.69 1480.74L2297.48 1480.17L2297.3 1479.58L2297.14 1478.99L2297.01 1478.39L2296.9 1477.78L2296.81 1477.16L2296.74 1476.53L2296.71 1475.9L2296.69 1475.26L2296.71 1474.62L2296.74 1473.99L2296.81 1473.36L2296.9 1472.74L2297.01 1472.13L2297.14 1471.53L2297.3 1470.94L2297.48 1470.35L2297.69 1469.78L2297.91 1469.22L2298.16 1468.67L2298.43 1468.13L2298.71 1467.6L2299.02 1467.08L2299.35 1466.58L2299.69 1466.09L2300.05 1465.62L2300.43 1465.16L2300.83 1464.71L2301.24 1464.28L2301.67 1463.87L2302.12 1463.47L2302.58 1463.09L2303.05 1462.73L2303.54 1462.38L2304.04 1462.06L2304.56 1461.75L2305.09 1461.46L2305.63 1461.2L2306.18 1460.95L2306.74 1460.73L2307.32 1460.52L2307.9 1460.34L2308.49 1460.18L2309.09 1460.05L2309.71 1459.93L2310.32 1459.84L2310.95 1459.78L2311.58 1459.74L2312.22 1459.73L2314.78 1459.68L2317.31 1459.52L2319.81 1459.27L2322.29 1458.92L2324.73 1458.47L2327.14 1457.92L2329.51 1457.29L2331.84 1456.56L2334.13 1455.74L2336.38 1454.84L2338.59 1453.86L2340.75 1452.79L2342.86 1451.64L2344.92 1450.41L2346.93 1449.11L2348.89 1447.73L2350.79 1446.28L2352.63 1444.76L2354.41 1443.17L2356.13 1441.52L2357.79 1439.8L2359.38 1438.02L2360.9 1436.18L2362.35 1434.28L2363.72 1432.32L2365.03 1430.31L2366.25 1428.25L2367.4 1426.14L2368.47 1423.97L2369.46 1421.77L2370.36 1419.52L2371.17 1417.22L2371.9 1414.89L2372.54 1412.52L2373.08 1410.11L2373.53 1407.67L2373.88 1405.2L2374.14 1402.7L2374.29 1400.16L2374.35 1397.61L2374.36 1396.97L2374.4 1396.33L2374.46 1395.71L2374.55 1395.09L2374.66 1394.48L2374.8 1393.88L2374.96 1393.28L2375.14 1392.7L2375.34 1392.13L2375.57 1391.56L2375.81 1391.01L2376.08 1390.47L2376.37 1389.94L2376.67 1389.43L2377 1388.93L2377.34 1388.44L2377.71 1387.96L2378.09 1387.5L2378.48 1387.06L2378.9 1386.63L2379.33 1386.21L2379.77 1385.82L2380.23 1385.44L2380.71 1385.07L2381.19 1384.73L2381.7 1384.4L2382.21 1384.1L2382.74 1383.81L2383.28 1383.54L2383.83 1383.3L2384.4 1383.07L2384.97 1382.87L2385.55 1382.69L2386.15 1382.53L2386.75 1382.39L2387.36 1382.28L2387.98 1382.19L2388.6 1382.13L2389.24 1382.09L2389.88 1382.08L2390.52 1382.09L2391.15 1382.13ZM2388.42 1451.18L2387.67 1452.23L2386.91 1453.27L2386.13 1454.29L2385.34 1455.31L2384.53 1456.31L2383.71 1457.3L2382.88 1458.28L2382.04 1459.25L2381.18 1460.21L2380.31 1461.15L2379.43 1462.09L2378.53 1463.01L2377.62 1463.92L2376.7 1464.81L2375.77 1465.7L2374.82 1466.57L2373.87 1467.42L2372.9 1468.27L2371.92 1469.1L2370.92 1469.92L2369.92 1470.72L2368.91 1471.51L2367.88 1472.29L2366.85 1473.06L2365.8 1473.8L2364.74 1474.54L2363.67 1475.26L2364.74 1475.98L2365.8 1476.72L2366.85 1477.46L2367.88 1478.23L2368.91 1479.01L2369.92 1479.8L2370.93 1480.6L2371.92 1481.42L2372.9 1482.25L2373.87 1483.1L2374.82 1483.95L2375.77 1484.82L2376.7 1485.71L2377.62 1486.6L2378.53 1487.51L2379.43 1488.43L2380.31 1489.37L2381.18 1490.31L2382.04 1491.27L2382.88 1492.24L2383.72 1493.22L2384.53 1494.21L2385.34 1495.21L2386.13 1496.23L2386.91 1497.25L2387.67 1498.29L2388.42 1499.34L2389.15 1500.39L2389.87 1501.46L2390.59 1500.39L2391.33 1499.33L2392.08 1498.29L2392.84 1497.25L2393.62 1496.23L2394.41 1495.21L2395.21 1494.21L2396.03 1493.22L2396.86 1492.24L2397.71 1491.27L2398.57 1490.31L2399.44 1489.37L2400.32 1488.43L2401.22 1487.51L2402.13 1486.6L2403.05 1485.71L2403.98 1484.82L2404.92 1483.95L2405.88 1483.09L2406.85 1482.25L2407.83 1481.42L2408.82 1480.6L2409.83 1479.8L2410.84 1479.01L2411.87 1478.23L2412.9 1477.46L2413.95 1476.72L2415.01 1475.98L2416.07 1475.26L2415.01 1474.54L2413.95 1473.8L2412.9 1473.06L2411.87 1472.29L2410.84 1471.51L2409.83 1470.72L2408.82 1469.92L2407.83 1469.1L2406.85 1468.27L2405.88 1467.42L2404.92 1466.57L2403.98 1465.7L2403.05 1464.81L2402.13 1463.92L2401.22 1463.01L2400.32 1462.09L2399.44 1461.15L2398.57 1460.21L2397.71 1459.25L2396.86 1458.28L2396.03 1457.3L2395.21 1456.31L2394.41 1455.31L2393.62 1454.29L2392.84 1453.27L2392.08 1452.23L2391.33 1451.18L2390.59 1450.13L2389.87 1449.06L2389.15 1450.13L2388.42 1451.18Z" id="aYsblf38"></path><path d="M1628.87 2143.08C1628.87 2146.19 1628.87 2171.04 1628.87 2174.15C1628.87 2182.72 1635.82 2189.68 1644.4 2189.68C1652.97 2189.68 1659.93 2182.72 1659.93 2174.15C1659.93 2171.04 1659.93 2146.19 1659.93 2143.08C1659.93 2134.51 1652.97 2127.55 1644.4 2127.55C1635.82 2127.55 1628.87 2134.51 1628.87 2143.08Z" id="aKS6XvNg6"></path><path d="M1375.13 2665.3L1389.1 2665.3L1403.08 2665.3L1403.08 2596.74L1403.08 2528.19L1416.39 2528.19L1429.7 2528.19L1429.7 2541.5L1429.7 2554.81L1443.68 2554.81L1457.66 2554.81L1457.66 2541.5L1457.66 2528.19L1470.97 2528.19L1484.28 2528.19L1484.28 2596.74L1484.28 2665.3L1498.25 2665.3L1512.23 2665.3L1512.23 2568.79L1512.23 2472.15L1498.65 2472.55L1484.94 2472.95L1484.54 2486.53L1484.14 2500.24L1470.97 2500.24L1457.66 2500.24L1457.66 2514.22L1457.66 2528.33L1444.08 2527.93L1430.37 2527.53L1429.97 2513.82L1429.57 2500.24L1416.39 2500.24L1403.08 2500.24L1403.08 2486.26L1403.08 2472.29L1389.1 2472.29L1375.13 2472.29L1375.13 2568.79L1375.13 2665.3Z" id="b2xXKN1FoF"></path><path d="M1540.18 2500.24L1553.49 2500.24L1566.81 2500.24L1566.81 2486.26L1566.81 2472.29L1553.49 2472.29L1540.18 2472.29L1540.18 2486.26L1540.18 2500.24Z" id="d2Etma8YI"></path><path d="M1786.44 2665.3L1786.44 2637.34L1759.82 2637.34L1759.82 2554.81L1786.44 2554.81L1786.44 2528.19L1842.34 2528.19L1842.34 2554.81L1868.97 2554.81L1868.97 2472.29L1896.92 2472.29L1896.92 2665.3L1786.44 2665.3ZM1805.49 2555.05L1804.52 2555.05L1803.56 2555.06L1802.62 2555.06L1801.69 2555.07L1800.79 2555.08L1799.91 2555.09L1799.05 2555.1L1798.22 2555.11L1797.4 2555.12L1796.62 2555.13L1795.86 2555.15L1795.12 2555.16L1794.41 2555.18L1793.73 2555.2L1793.08 2555.21L1792.46 2555.23L1791.87 2555.25L1791.31 2555.28L1790.79 2555.3L1790.3 2555.32L1789.84 2555.34L1789.42 2555.37L1789.03 2555.39L1788.69 2555.42L1788.38 2555.44L1788.11 2555.47L1787.88 2555.5L1787.69 2555.53L1787.54 2555.55L1787.43 2555.58L1787.37 2555.61L1787.33 2555.69L1787.29 2555.83L1787.25 2556.03L1787.21 2556.3L1787.18 2556.63L1787.14 2557.03L1787.1 2557.48L1787.07 2557.99L1787.03 2558.56L1787 2559.18L1786.97 2559.86L1786.93 2560.59L1786.9 2561.37L1786.87 2562.2L1786.84 2563.08L1786.81 2564.01L1786.78 2564.99L1786.76 2566.01L1786.73 2567.07L1786.7 2568.18L1786.68 2569.32L1786.66 2570.51L1786.63 2571.73L1786.61 2572.99L1786.59 2574.28L1786.57 2575.61L1786.56 2576.97L1786.54 2578.37L1786.52 2579.79L1786.51 2581.24L1786.5 2582.72L1786.48 2584.22L1786.47 2585.75L1786.46 2587.3L1786.46 2588.87L1786.45 2590.46L1786.44 2592.08L1786.44 2593.7L1786.44 2595.35L1786.44 2597.01L1786.44 2637.34L1868.97 2637.34L1868.97 2582.77L1842.48 2582.77L1842.08 2569.06L1841.68 2555.48L1814.92 2555.08L1813.83 2555.07L1812.75 2555.06L1811.67 2555.06L1810.61 2555.05L1809.56 2555.05L1808.52 2555.05L1807.5 2555.05L1806.49 2555.05L1805.49 2555.05Z" id="cSo607zx"></path><path d="M1979.45 2665.3L1992.76 2665.3L2006.07 2665.3L2006.07 2596.74L2006.07 2528.19L2020.05 2528.19L2034.02 2528.19L2034.02 2541.5L2034.02 2554.68L2047.73 2555.08L2061.31 2555.48L2061.71 2569.06L2062.11 2582.77L2075.29 2582.77L2088.6 2582.77L2088.6 2624.03L2088.6 2665.3L2102.58 2665.3L2116.55 2665.3L2116.55 2568.79L2116.55 2472.29L2102.58 2472.29L2088.6 2472.29L2088.6 2513.55L2088.6 2554.81L2075.29 2554.81L2061.98 2554.81L2061.98 2541.5L2061.98 2528.19L2048 2528.19L2034.02 2528.19L2034.02 2514.22L2034.02 2500.24L2020.05 2500.24L2006.07 2500.24L2006.07 2486.26L2006.07 2472.29L1992.76 2472.29L1979.45 2472.29L1979.45 2568.79L1979.45 2665.3Z" id="aamIFijXM"></path><path d="M2336.18 2500.24L2322.21 2500.24L2308.23 2500.24L2308.23 2514.22L2308.23 2528.19L2322.21 2528.19L2336.18 2528.19L2336.18 2582.77L2336.18 2637.34L2349.49 2637.34L2362.81 2637.34L2362.81 2651.32L2362.81 2665.3L2376.78 2665.3L2390.76 2665.3L2390.76 2651.32L2390.76 2637.34L2377.45 2637.34L2364.14 2637.34L2364.14 2582.77L2364.14 2528.19L2377.45 2528.19L2390.76 2528.19L2390.76 2514.22L2390.76 2500.24L2377.45 2500.24L2364.27 2500.24L2363.87 2486.53L2363.47 2472.95L2349.89 2472.55L2336.18 2472.15L2336.18 2486.26L2336.18 2500.24Z" id="g1CFIjVTCd"></path><path d="M1540.18 2665.3L1553.49 2665.3L1566.81 2665.3L1566.81 2596.74L1566.81 2528.19L1553.49 2528.19L1540.18 2528.19L1540.18 2596.74L1540.18 2665.3Z" id="a1tLCDKPrL"></path><path d="M1594.76 2665.3L1608.74 2665.3L1622.71 2665.3L1622.71 2610.06L1622.71 2554.81L1663.31 2554.81L1703.91 2554.81L1703.91 2610.06L1703.91 2665.3L1717.89 2665.3L1731.86 2665.3L1731.86 2610.06L1731.86 2554.81L1718.55 2554.81L1705.24 2554.81L1705.24 2541.5L1705.24 2528.19L1650 2528.19L1594.76 2528.19L1594.76 2596.74L1594.76 2665.3Z" id="b1NQGfoRf0"></path><path d="M2213.32 2554.81L2211.66 2554.82L2210.02 2554.82L2208.39 2554.82L2206.78 2554.83L2205.18 2554.83L2203.61 2554.84L2202.06 2554.85L2200.53 2554.86L2199.03 2554.87L2197.55 2554.89L2196.1 2554.9L2194.68 2554.92L2193.29 2554.93L2191.93 2554.95L2190.6 2554.97L2189.31 2554.99L2188.05 2555.01L2186.83 2555.03L2185.65 2555.06L2184.5 2555.08L2183.4 2555.11L2182.34 2555.13L2181.33 2555.16L2180.35 2555.19L2179.43 2555.22L2178.55 2555.25L2177.72 2555.28L2176.95 2555.31L2176.22 2555.34L2175.55 2555.38L2174.93 2555.41L2174.37 2555.44L2173.87 2555.48L2173.42 2555.52L2173.03 2555.55L2172.71 2555.59L2172.45 2555.63L2172.25 2555.67L2172.12 2555.71L2172.06 2555.75L2172.02 2555.81L2171.98 2555.94L2171.94 2556.14L2171.9 2556.4L2171.87 2556.72L2171.83 2557.11L2171.79 2557.55L2171.76 2558.06L2171.72 2558.62L2171.69 2559.24L2171.66 2559.91L2171.62 2560.63L2171.59 2561.41L2171.56 2562.24L2171.53 2563.12L2171.5 2564.04L2171.47 2565.01L2171.45 2566.03L2171.42 2567.09L2171.39 2568.19L2171.37 2569.34L2171.35 2570.52L2171.32 2571.74L2171.3 2573L2171.28 2574.29L2171.26 2575.62L2171.24 2576.98L2171.23 2578.37L2171.21 2579.79L2171.2 2581.24L2171.18 2582.72L2171.17 2584.22L2171.16 2585.75L2171.15 2587.3L2171.15 2588.87L2171.14 2590.46L2171.13 2592.08L2171.13 2593.7L2171.13 2595.35L2171.13 2597.01L2171.13 2637.34L2253.66 2637.34L2253.66 2554.81L2281.61 2554.81L2281.61 2637.34L2253.66 2637.34L2253.66 2665.3L2171.13 2665.3L2171.13 2637.34L2143.17 2637.34L2143.17 2554.81L2171.13 2554.81L2171.13 2528.19L2253.66 2528.19L2253.66 2554.81L2213.32 2554.81Z" id="a1j1Am3N2E"></path><path d="M2487.53 2554.81L2485.87 2554.82L2484.22 2554.82L2482.6 2554.82L2480.98 2554.83L2479.39 2554.83L2477.82 2554.84L2476.27 2554.85L2474.74 2554.86L2473.24 2554.87L2471.76 2554.89L2470.31 2554.9L2468.89 2554.92L2467.5 2554.93L2466.14 2554.95L2464.81 2554.97L2463.52 2554.99L2462.26 2555.01L2461.04 2555.03L2459.86 2555.06L2458.71 2555.08L2457.61 2555.11L2456.55 2555.13L2455.53 2555.16L2454.56 2555.19L2453.64 2555.22L2452.76 2555.25L2451.93 2555.28L2451.15 2555.31L2450.43 2555.34L2449.76 2555.38L2449.14 2555.41L2448.58 2555.44L2448.07 2555.48L2447.63 2555.52L2447.24 2555.55L2446.92 2555.59L2446.66 2555.63L2446.46 2555.67L2446.33 2555.71L2446.27 2555.75L2446.23 2555.79L2446.19 2555.85L2446.15 2555.94L2446.11 2556.04L2446.07 2556.17L2446.04 2556.31L2446 2556.48L2445.96 2556.66L2445.93 2556.87L2445.9 2557.09L2445.86 2557.33L2445.83 2557.58L2445.8 2557.86L2445.77 2558.14L2445.74 2558.45L2445.71 2558.77L2445.68 2559.1L2445.65 2559.45L2445.63 2559.81L2445.6 2560.19L2445.58 2560.58L2445.55 2560.98L2445.53 2561.39L2445.51 2561.81L2445.49 2562.25L2445.47 2562.69L2445.45 2563.15L2445.44 2563.61L2445.42 2564.08L2445.41 2564.56L2445.39 2565.05L2445.38 2565.55L2445.37 2566.05L2445.36 2566.56L2445.35 2567.08L2445.35 2567.6L2445.34 2568.12L2445.34 2568.65L2445.34 2569.19L2445.33 2569.72L2445.33 2582.77L2527.86 2582.77L2527.86 2554.81L2555.82 2554.81L2555.82 2610.72L2445.33 2610.72L2445.33 2637.34L2555.82 2637.34L2555.82 2665.3L2445.33 2665.3L2445.33 2637.34L2418.71 2637.34L2418.71 2554.81L2445.33 2554.81L2445.33 2528.19L2527.86 2528.19L2527.86 2554.81L2487.53 2554.81Z" id="c1B4z1vWIt"></path><path d="M2610.39 2554.81L2596.41 2554.81L2582.44 2554.81L2582.44 2568.79L2582.44 2582.77L2596.41 2582.77L2610.39 2582.77L2610.39 2596.74L2610.39 2610.72L2651.66 2610.72L2692.92 2610.72L2692.92 2624.03L2692.92 2637.34L2637.68 2637.34L2582.44 2637.34L2582.44 2651.32L2582.44 2665.3L2637.68 2665.3L2692.92 2665.3L2692.92 2651.32L2692.92 2637.34L2706.9 2637.34L2720.87 2637.34L2720.87 2624.03L2720.87 2610.72L2706.9 2610.72L2692.92 2610.72L2692.92 2596.74L2692.92 2582.77L2651.66 2582.77L2610.26 2582.77L2610.66 2569.06L2611.06 2555.48L2666.03 2555.08L2720.87 2554.81L2720.87 2541.5L2720.87 2528.19L2665.63 2528.19L2610.39 2528.19L2610.39 2541.5L2610.39 2554.81Z" id="c1YIiFhERJ"></path></defs><g><g><g><use xlink:href="#d1YI6cCcVj" opacity="1" fill="#cdedf6" fill-opacity="1"></use><g><use xlink:href="#d1YI6cCcVj" opacity="1" fill-opacity="0" stroke="#000000" stroke-width="1" stroke-opacity="0"></use></g></g><g><use xlink:href="#aNZl5HZ0s" opacity="1" fill="#cdedf6" fill-opacity="1"></use><g><use xlink:href="#aNZl5HZ0s" opacity="1" fill-opacity="0" stroke="#000000" stroke-width="1" stroke-opacity="0"></use></g></g><g><use xlink:href="#b2HAneipQ8" opacity="1" fill="#313139" fill-opacity="1"></use></g><g><use xlink:href="#h3ZgLSD1vt" opacity="1" fill="#cdedf6" fill-opacity="1"></use><g><use xlink:href="#h3ZgLSD1vt" opacity="1" fill-opacity="0" stroke="#000000" stroke-width="1" stroke-opacity="0"></use></g></g><g><use xlink:href="#avseUIU7J" opacity="1" fill="#cdedf6" fill-opacity="1"></use><g><use xlink:href="#avseUIU7J" opacity="1" fill-opacity="0" stroke="#000000" stroke-width="1" stroke-opacity="0"></use></g></g><g><use xlink:href="#bhcB3CANR" opacity="1" fill="#cdedf6" fill-opacity="1"></use><g><use xlink:href="#bhcB3CANR" opacity="1" fill-opacity="0" stroke="#000000" stroke-width="1" stroke-opacity="0"></use></g></g><g><use xlink:href="#d16kvwdk6H" opacity="1" fill="#cdedf6" fill-opacity="1"></use><g><use xlink:href="#d16kvwdk6H" opacity="1" fill-opacity="0" stroke="#000000" stroke-width="1" stroke-opacity="0"></use></g></g><g><use xlink:href="#h5Ai2xRMKI" opacity="1" fill="#cdedf6" fill-opacity="1"></use><g><use xlink:href="#h5Ai2xRMKI" opacity="1" fill-opacity="0" stroke="#000000" stroke-width="1" stroke-opacity="0"></use></g></g><g><use xlink:href="#b3BYlpyMOM" opacity="1" fill="#cdedf6" fill-opacity="1"></use><g><use xlink:href="#b3BYlpyMOM" opacity="1" fill-opacity="0" stroke="#000000" stroke-width="1" stroke-opacity="0"></use></g></g><g><use xlink:href="#cGOLmivGe" opacity="1" fill="#cdedf6" fill-opacity="1"></use><g><use xlink:href="#cGOLmivGe" opacity="1" fill-opacity="0" stroke="#000000" stroke-width="1" stroke-opacity="0"></use></g></g><g><use xlink:href="#e8Dr4G5PZ" opacity="1" fill="#cdedf6" fill-opacity="1"></use><g><use xlink:href="#e8Dr4G5PZ" opacity="1" fill-opacity="0" stroke="#000000" stroke-width="1" stroke-opacity="0"></use></g></g><g><use xlink:href="#a33lYQNzRz" opacity="1" fill="#cdedf6" fill-opacity="1"></use><g><use xlink:href="#a33lYQNzRz" opacity="1" fill-opacity="0" stroke="#000000" stroke-width="1" stroke-opacity="0"></use></g></g><g><use xlink:href="#ipn0BF2Oo" opacity="1" fill="#cdedf6" fill-opacity="1"></use><g><use xlink:href="#ipn0BF2Oo" opacity="1" fill-opacity="0" stroke="#000000" stroke-width="1" stroke-opacity="0"></use></g></g><g><use xlink:href="#a5Um450Hej" opacity="1" fill="#cdedf6" fill-opacity="1"></use><g><use xlink:href="#a5Um450Hej" opacity="1" fill-opacity="0" stroke="#000000" stroke-width="1" stroke-opacity="0"></use></g></g><g><use xlink:href="#b2EmBLuv3n" opacity="1" fill="#cdedf6" fill-opacity="1"></use><g><use xlink:href="#b2EmBLuv3n" opacity="1" fill-opacity="0" stroke="#000000" stroke-width="1" stroke-opacity="0"></use></g></g><g><use xlink:href="#d5faoEO3EU" opacity="1" fill="#cdedf6" fill-opacity="1"></use><g><use xlink:href="#d5faoEO3EU" opacity="1" fill-opacity="0" stroke="#000000" stroke-width="1" stroke-opacity="0"></use></g></g><g><use xlink:href="#cwHFXRmKy" opacity="1" fill="#cdedf6" fill-opacity="1"></use><g><use xlink:href="#cwHFXRmKy" opacity="1" fill-opacity="0" stroke="#000000" stroke-width="1" stroke-opacity="0"></use></g></g><g><use xlink:href="#hP4p0ZHw2" opacity="1" fill="#cdedf6" fill-opacity="1"></use><g><use xlink:href="#hP4p0ZHw2" opacity="1" fill-opacity="0" stroke="#000000" stroke-width="1" stroke-opacity="0"></use></g></g><g><use xlink:href="#d5SJ0nHcJ2" opacity="1" fill="#cdedf6" fill-opacity="1"></use><g><use xlink:href="#d5SJ0nHcJ2" opacity="1" fill-opacity="0" stroke="#000000" stroke-width="1" stroke-opacity="0"></use></g></g><g><use xlink:href="#av20Q2YeA" opacity="1" fill="#cdedf6" fill-opacity="1"></use><g><use xlink:href="#av20Q2YeA" opacity="1" fill-opacity="0" stroke="#000000" stroke-width="1" stroke-opacity="0"></use></g></g><g><use xlink:href="#aYsblf38" opacity="1" fill="#cdedf6" fill-opacity="1"></use><g><use xlink:href="#aYsblf38" opacity="1" fill-opacity="0" stroke="#000000" stroke-width="1" stroke-opacity="0"></use></g></g><g><use xlink:href="#aKS6XvNg6" opacity="1" fill="#cdedf6" fill-opacity="1"></use><g><use xlink:href="#aKS6XvNg6" opacity="1" fill-opacity="0" stroke="#000000" stroke-width="1" stroke-opacity="0"></use></g></g><g><use xlink:href="#b2xXKN1FoF" opacity="1" fill="#cdedf6" fill-opacity="1"></use><g><use xlink:href="#b2xXKN1FoF" opacity="1" fill-opacity="0" stroke="#000000" stroke-width="1" stroke-opacity="0"></use></g></g><g><use xlink:href="#d2Etma8YI" opacity="1" fill="#cdedf6" fill-opacity="1"></use><g><use xlink:href="#d2Etma8YI" opacity="1" fill-opacity="0" stroke="#000000" stroke-width="1" stroke-opacity="0"></use></g></g><g><use xlink:href="#cSo607zx" opacity="1" fill="#cdedf6" fill-opacity="1"></use><g><use xlink:href="#cSo607zx" opacity="1" fill-opacity="0" stroke="#000000" stroke-width="1" stroke-opacity="0"></use></g></g><g><use xlink:href="#aamIFijXM" opacity="1" fill="#cdedf6" fill-opacity="1"></use><g><use xlink:href="#aamIFijXM" opacity="1" fill-opacity="0" stroke="#000000" stroke-width="1" stroke-opacity="0"></use></g></g><g><use xlink:href="#g1CFIjVTCd" opacity="1" fill="#cdedf6" fill-opacity="1"></use><g><use xlink:href="#g1CFIjVTCd" opacity="1" fill-opacity="0" stroke="#000000" stroke-width="1" stroke-opacity="0"></use></g></g><g><use xlink:href="#a1tLCDKPrL" opacity="1" fill="#cdedf6" fill-opacity="1"></use><g><use xlink:href="#a1tLCDKPrL" opacity="1" fill-opacity="0" stroke="#000000" stroke-width="1" stroke-opacity="0"></use></g></g><g><use xlink:href="#b1NQGfoRf0" opacity="1" fill="#cdedf6" fill-opacity="1"></use><g><use xlink:href="#b1NQGfoRf0" opacity="1" fill-opacity="0" stroke="#000000" stroke-width="1" stroke-opacity="0"></use></g></g><g><use xlink:href="#a1j1Am3N2E" opacity="1" fill="#cdedf6" fill-opacity="1"></use><g><use xlink:href="#a1j1Am3N2E" opacity="1" fill-opacity="0" stroke="#000000" stroke-width="1" stroke-opacity="0"></use></g></g><g><use xlink:href="#c1B4z1vWIt" opacity="1" fill="#cdedf6" fill-opacity="1"></use><g><use xlink:href="#c1B4z1vWIt" opacity="1" fill-opacity="0" stroke="#000000" stroke-width="1" stroke-opacity="0"></use></g></g><g><use xlink:href="#c1YIiFhERJ" opacity="1" fill="#cdedf6" fill-opacity="1"></use><g><use xlink:href="#c1YIiFhERJ" opacity="1" fill-opacity="0" stroke="#000000" stroke-width="1" stroke-opacity="0"></use></g></g></g></g></svg>